<?xml version="1.0" standalone="no"?>
<!DOCTYPE svg PUBLIC "-//W3C//DTD SVG 20010904//EN"
 "http://www.w3.org/TR/2001/REC-SVG-20010904/DTD/svg10.dtd">
<svg version="1.0" xmlns="http://www.w3.org/2000/svg"
 width="1024.000000pt" height="1024.000000pt" viewBox="0 0 1024.000000 1024.000000"
 preserveAspectRatio="xMidYMid meet">
<metadata>
Created by potrace 1.16, written by Peter Selinger 2001-2019
</metadata>
<g transform="translate(0.000000,1024.000000) scale(0.100000,-0.100000)"
fill="#000000" stroke="none">
<path d="M2 8478 l3 -1763 83 -11 c45 -6 129 -9 185 -7 178 6 189 8 214 40 13
15 21 35 18 43 -7 23 6 36 67 67 31 15 57 31 57 36 4 48 72 154 92 142 5 -4 6
0 3 8 -3 8 0 18 7 23 8 5 10 3 5 -7 -4 -8 0 -5 9 6 9 11 20 19 25 18 5 -2 7 4
3 12 -5 13 -7 13 -20 -2 -23 -28 -4 6 35 65 19 28 39 52 42 52 10 0 24 36 51
130 12 41 32 96 44 121 48 94 146 160 262 176 59 8 99 37 132 96 22 41 24 49
11 58 -12 8 -11 9 6 4 18 -5 27 3 50 42 15 26 56 78 91 114 113 118 267 165
405 125 90 -26 318 -139 388 -193 91 -69 175 -125 240 -159 76 -40 78 -40 48
-8 -84 92 -117 137 -85 118 8 -5 8 -3 -2 9 -7 9 -16 15 -20 12 -8 -4 -17 5
-71 75 -18 25 -49 62 -67 83 -19 21 -31 42 -28 48 4 5 2 8 -4 7 -5 -2 -29 24
-53 58 -24 33 -70 93 -103 133 -33 40 -59 77 -57 82 1 5 -4 8 -10 7 -7 -2 -12
5 -12 15 1 10 -1 16 -4 13 -8 -9 -42 25 -42 41 0 7 -4 13 -9 13 -9 0 -50 52
-176 217 -30 39 -59 74 -64 77 -5 4 -5 20 1 40 l11 35 19 -22 18 -22 -11 27
c-11 25 -9 30 14 52 51 47 93 18 235 -164 37 -47 74 -92 82 -101 8 -9 23 -27
34 -40 10 -13 28 -34 39 -46 17 -20 18 -25 6 -40 -12 -16 -12 -17 2 -5 14 10
24 3 71 -46 52 -56 73 -88 69 -105 -2 -12 26 -37 33 -30 3 4 6 0 6 -9 0 -8 9
-23 20 -33 11 -10 17 -22 14 -26 -9 -16 8 -33 18 -18 6 9 7 4 3 -16 -3 -16 -2
-24 1 -18 4 10 9 10 20 -1 8 -8 14 -19 14 -25 0 -5 6 -14 13 -18 7 -4 31 -37
52 -73 22 -36 59 -84 83 -108 23 -24 40 -47 37 -53 -4 -5 -2 -8 3 -7 11 3 52
-40 52 -54 0 -5 18 -28 40 -51 30 -30 37 -43 28 -50 -9 -6 -8 -7 4 -4 9 3 24
-3 34 -14 9 -10 14 -19 10 -19 -4 0 17 -26 47 -57 78 -83 110 -123 103 -130
-3 -4 -6 -1 -6 5 0 7 -5 12 -12 12 -6 0 -1 -12 13 -27 13 -14 19 -23 12 -20
-7 5 -10 0 -8 -10 1 -10 9 -17 18 -15 11 2 22 -10 31 -33 8 -19 20 -35 25 -35
6 0 11 -5 11 -11 0 -13 52 -79 114 -143 52 -55 48 -47 -58 103 -36 51 -66 98
-66 102 0 13 60 11 137 -5 37 -8 92 -17 121 -21 49 -6 52 -6 52 15 0 65 68
130 134 130 87 0 137 -63 139 -172 1 -68 3 -73 37 -104 19 -18 28 -32 20 -31
-29 2 -78 -25 -85 -46 -3 -12 -8 -42 -11 -66 -2 -24 -13 -56 -24 -71 -28 -39
-25 -50 14 -50 54 0 110 -51 151 -138 41 -87 30 -122 -28 -90 -12 6 -43 13
-68 14 -26 1 -57 5 -69 9 -21 7 -21 6 4 -34 17 -27 21 -38 11 -35 -8 4 -15 10
-15 16 0 17 -60 67 -106 87 -12 5 -34 21 -49 35 -15 14 -34 26 -41 26 -8 0
-14 7 -14 16 0 18 -46 89 -60 90 -6 1 -12 2 -15 3 -3 0 -1 10 5 20 8 17 7 19
-9 16 -12 -2 -26 6 -37 20 -13 18 -21 21 -31 14 -14 -12 -36 -2 -28 12 4 5
-13 9 -37 9 -26 0 -38 -4 -30 -8 8 -6 2 -9 -18 -9 -28 0 -29 2 -14 18 10 11
12 19 5 24 -6 3 -11 1 -11 -4 0 -6 -5 -11 -11 -11 -7 0 -18 -8 -26 -17 -11
-14 -10 -11 1 13 14 30 14 32 -4 37 -11 3 -23 0 -27 -5 -4 -7 -1 -8 8 -3 26
15 4 -3 -36 -31 -25 -17 -34 -20 -25 -8 14 16 13 17 -2 11 -24 -9 -23 5 2 20
17 11 19 10 14 -5 -5 -14 -4 -14 4 -2 7 9 7 18 1 26 -7 8 -5 11 7 10 9 0 18 5
20 12 1 7 0 8 -2 3 -3 -6 -11 -8 -18 -5 -8 3 -31 -11 -52 -30 -55 -51 -67 -45
-15 8 24 24 40 49 37 55 -4 6 2 24 13 40 12 16 21 34 21 40 0 15 -37 14 -43
-1 -2 -8 -8 -9 -13 -4 -5 5 -4 11 4 13 18 7 15 21 -8 28 -11 3 -20 11 -20 17
0 17 -42 49 -57 44 -18 -7 -16 5 4 34 16 23 16 23 -3 16 -10 -5 -38 -9 -61
-10 -31 -2 -53 -12 -85 -38 -24 -19 -53 -38 -65 -42 -11 -4 -27 -13 -33 -21
-7 -8 -20 -15 -29 -15 -9 0 -29 -12 -45 -26 -23 -22 -30 -24 -37 -13 -7 11 -9
10 -9 -4 0 -10 -4 -15 -10 -12 -5 3 -10 2 -10 -2 0 -5 -15 -15 -32 -22 -44
-18 -108 -25 -108 -12 0 6 -3 10 -7 9 -17 -4 -60 17 -110 53 -29 22 -57 39
-62 39 -5 0 -17 10 -25 22 -9 12 -16 18 -16 13 0 -5 -13 5 -29 23 -19 20 -35
30 -45 26 -12 -5 -15 -2 -10 11 6 14 3 16 -14 10 -16 -5 -22 -2 -22 9 0 9 -7
16 -15 16 -8 0 -15 6 -15 13 0 7 -20 21 -45 32 -25 10 -57 29 -70 41 -14 13
-25 18 -25 12 0 -7 -7 -3 -15 8 -14 18 -15 18 -8 0 6 -18 5 -18 -22 0 -16 10
-42 19 -58 20 l-29 2 20 -22 c93 -98 137 -139 202 -187 88 -65 545 -371 614
-412 29 -17 44 -32 40 -39 -4 -6 -3 -8 3 -5 5 3 18 -6 29 -20 10 -14 38 -46
62 -71 36 -39 40 -47 29 -61 -8 -9 -17 -24 -20 -33 -7 -19 -27 -25 -27 -9 0
13 -64 -6 -103 -30 -18 -10 -27 -19 -22 -19 6 0 21 7 33 16 24 16 30 4 9 -18
-8 -7 -16 -20 -20 -28 -4 -11 -6 -11 -6 -2 -1 10 -6 10 -23 -2 -31 -22 -41
-20 -27 7 11 20 11 21 -4 9 -9 -8 -22 -10 -28 -6 -8 5 -11 2 -7 -7 4 -10 -2
-14 -20 -16 -13 0 -29 -7 -34 -15 -16 -22 3 34 20 60 18 28 49 45 64 36 7 -5
8 -3 3 5 -4 8 4 24 21 42 15 16 24 29 19 29 -5 0 -48 -41 -97 -90 -80 -82 -93
-92 -89 -67 1 5 -3 6 -9 2 -5 -3 -10 -1 -10 6 0 10 -3 10 -12 1 -16 -16 -31
-15 -22 1 6 10 4 10 -7 0 -20 -19 -28 -16 -21 10 5 20 4 21 -11 8 -15 -12 -22
-10 -52 10 -26 18 -35 31 -36 54 0 25 -2 27 -8 10 -7 -17 -8 -17 -15 8 -7 31
-22 36 -29 10 -3 -10 -5 -5 -6 12 0 17 -3 45 -7 63 -4 21 -2 32 5 32 6 0 11 7
11 15 0 8 -4 15 -9 15 -14 0 -23 -53 -15 -84 5 -20 2 -26 -10 -26 -10 0 -13 5
-9 17 5 11 3 14 -6 8 -10 -6 -11 -2 -7 16 l7 24 -20 -23 -20 -22 -6 21 c-4 11
-4 23 -1 26 3 4 6 -2 7 -13 0 -16 2 -15 10 5 5 13 8 29 5 35 -2 6 -5 3 -5 -6
-1 -11 -6 -15 -15 -12 -8 3 -12 13 -9 25 4 14 0 19 -13 19 -15 0 -16 -2 -5 -9
11 -7 11 -13 0 -32 l-13 -24 -6 25 c-5 22 -7 23 -13 7 -4 -10 -11 -16 -16 -13
-5 4 -12 0 -15 -6 -4 -7 -4 -3 -2 9 2 13 0 26 -5 29 -5 3 -9 -2 -9 -10 0 -22
-20 -20 -21 2 0 14 -2 14 -9 -3 -5 -11 -9 -14 -9 -6 -1 7 -7 11 -16 7 -8 -3
-15 -1 -15 4 0 6 -9 10 -20 10 -13 0 -18 5 -14 15 6 15 -4 18 -51 17 -17 -1
-17 0 -3 4 28 8 21 23 -8 19 -19 -2 -28 3 -31 17 -4 14 -11 17 -27 12 -18 -6
-19 -5 -8 9 11 13 9 16 -15 20 l-28 4 28 2 c16 0 26 5 22 11 -4 6 -11 8 -16 5
-5 -4 -9 -2 -9 4 0 5 6 12 13 14 7 3 5 6 -5 6 -10 1 -18 -3 -18 -9 0 -5 -4
-10 -10 -10 -18 0 -10 17 13 28 18 9 19 11 4 11 -10 1 -15 6 -12 11 4 6 11 8
16 5 5 -4 9 -2 9 3 0 17 -13 22 -27 10 -7 -6 -16 -8 -20 -4 -3 3 -1 6 5 6 7 0
12 12 12 28 0 17 -3 22 -8 15 -6 -10 -12 -10 -28 3 -10 8 -13 13 -6 9 7 -4 12
0 12 9 0 9 -3 16 -7 15 -5 -1 -18 2 -31 6 -19 6 -20 10 -10 23 10 12 10 14 1
8 -8 -4 -13 -2 -13 4 0 6 -4 9 -10 5 -5 -3 -16 6 -25 19 -9 14 -40 40 -68 58
-29 18 -53 36 -55 40 -2 5 -12 8 -23 8 -11 0 -22 7 -25 15 -4 8 -17 15 -31 15
-13 0 -22 4 -19 8 2 4 -3 9 -12 10 -9 1 -39 5 -67 9 -41 7 -58 5 -92 -12 -24
-11 -43 -25 -43 -30 0 -6 -9 -17 -20 -25 -11 -8 -20 -18 -20 -23 0 -5 -9 -22
-20 -38 -12 -15 -24 -51 -27 -79 -6 -50 -5 -51 42 -95 26 -25 58 -48 72 -51
19 -5 21 -9 11 -15 -9 -6 -8 -9 8 -9 11 0 24 -3 28 -7 4 -5 13 -8 19 -8 7 -1
11 -6 10 -13 -2 -7 3 -12 10 -13 33 -2 62 -11 65 -19 2 -6 10 -10 18 -10 8 0
14 -4 14 -10 0 -5 10 -10 23 -10 27 0 70 -28 62 -41 -4 -5 5 -5 20 1 32 12 45
13 27 1 -9 -5 -2 -10 23 -14 39 -6 245 -147 382 -262 7 -5 19 -16 28 -23 8 -7
15 -27 16 -45 0 -29 1 -30 9 -9 11 27 24 29 17 3 -3 -13 -1 -18 8 -15 8 4 16
-6 20 -25 4 -17 10 -29 15 -26 15 9 19 -23 4 -35 -9 -8 -14 -9 -14 -2 0 6 6
13 13 15 6 3 3 6 -9 6 -11 1 -25 -4 -30 -9 -7 -7 -10 0 -7 22 3 30 2 31 -7 10
-5 -13 -15 -20 -20 -17 -6 4 -17 1 -25 -5 -12 -10 -15 -8 -15 11 0 19 -2 21
-10 9 -9 -13 -11 -13 -20 0 -5 8 -8 22 -5 30 4 11 2 11 -8 -2 -12 -15 -15 -14
-32 7 -11 12 -24 21 -28 18 -4 -3 5 -16 20 -29 21 -18 24 -24 11 -24 -9 0 -19
-6 -21 -12 -4 -10 -6 -10 -6 0 -1 6 -8 12 -16 12 -7 0 -19 8 -24 18 -10 16
-10 16 -11 0 0 -16 -2 -16 -31 0 -24 13 -33 14 -36 5 -7 -20 -19 -15 -20 8 -1
12 -7 27 -14 33 -8 8 -9 5 -4 -13 6 -20 4 -23 -9 -18 -11 4 -16 1 -17 -11 0
-10 -3 -12 -6 -4 -2 6 -9 10 -14 6 -5 -3 -9 -1 -9 4 0 6 7 12 15 16 8 3 12 12
9 20 -3 9 -12 12 -21 9 -10 -4 -14 -2 -10 4 4 6 -3 8 -17 6 -16 -3 -31 2 -45
16 -18 18 -22 19 -36 5 -13 -14 -15 -14 -15 0 0 9 5 16 10 16 6 0 10 5 10 11
0 7 -9 5 -24 -5 -24 -15 -25 -15 -21 4 2 11 0 18 -5 15 -5 -3 -15 4 -24 16 -8
12 -19 18 -24 15 -5 -3 -15 0 -21 7 -6 8 -29 20 -51 27 -21 7 -37 16 -35 20 5
8 -67 40 -105 47 -14 2 -32 11 -41 19 -9 8 -24 12 -33 8 -9 -3 -16 -1 -16 6 0
6 -4 9 -9 5 -5 -3 -12 -1 -15 3 -14 24 -129 -8 -120 -33 3 -7 -5 -20 -18 -29
-20 -14 -18 -21 5 -17 12 2 8 -17 -6 -22 -9 -4 -9 -6 0 -6 7 -1 10 -8 7 -16
-4 -8 -1 -15 6 -15 6 0 8 -5 4 -12 -5 -7 -2 -9 8 -6 8 4 21 2 29 -2 8 -6 16
-4 21 3 5 8 8 6 8 -7 0 -14 5 -17 23 -13 20 5 20 5 5 -7 -20 -15 -14 -27 10
-20 10 3 1 -4 -18 -15 -33 -19 -34 -20 -10 -21 18 0 21 -3 11 -9 -11 -7 -9
-10 8 -16 21 -6 22 -7 4 -21 -17 -13 -17 -13 0 -14 10 0 20 -7 23 -15 4 -8 14
-15 23 -16 12 0 12 -2 -4 -9 -18 -8 -17 -9 8 -9 17 -1 27 -7 27 -16 0 -9 6
-12 15 -9 11 5 13 2 8 -12 -4 -11 -3 -15 5 -10 6 3 13 2 17 -4 4 -6 11 -8 16
-5 5 4 9 1 9 -4 0 -6 9 -11 21 -11 13 0 18 -4 13 -12 -5 -8 -2 -9 10 -5 13 5
17 3 13 -7 -4 -9 -1 -13 6 -10 14 5 110 -30 102 -37 -3 -3 1 -6 8 -6 8 0 78
-30 156 -66 78 -37 144 -67 148 -67 16 0 193 -92 193 -100 0 -6 9 -10 20 -10
11 0 20 -7 20 -15 0 -8 3 -14 8 -13 13 3 72 -13 72 -21 0 -3 12 -12 28 -19 58
-26 72 -38 60 -50 -9 -9 -9 -12 -1 -12 7 0 14 4 18 10 10 16 76 -23 71 -43 -2
-9 0 -15 5 -11 15 9 10 -13 -6 -26 -12 -10 -15 -10 -15 0 0 9 -7 8 -25 -4 -23
-15 -25 -15 -25 -1 0 10 -5 13 -12 9 -8 -5 -9 -2 -5 9 5 14 1 13 -22 -4 -21
-15 -33 -19 -46 -12 -15 9 -13 13 15 36 40 34 28 35 -15 3 -35 -27 -81 -26
-71 1 4 10 1 13 -13 8 -16 -5 -19 -1 -17 18 2 13 6 30 10 38 4 8 -4 1 -18 -16
-18 -21 -28 -27 -36 -19 -8 8 -7 16 5 28 9 9 12 16 6 16 -5 0 -13 -5 -16 -11
-5 -7 -12 -6 -23 4 -19 16 -85 19 -75 4 3 -6 1 -7 -5 -3 -9 5 -9 13 -2 27 8
13 7 19 0 19 -6 0 -13 -7 -16 -15 -4 -8 -10 -13 -14 -10 -4 3 -10 -2 -14 -10
-9 -25 -23 -17 -23 15 0 47 -22 57 -26 12 0 -11 -5 -19 -9 -16 -4 3 -5 11 -1
19 3 8 0 15 -6 15 -6 0 -11 -8 -12 -17 0 -12 -2 -13 -6 -5 -3 7 1 19 7 27 8
10 9 15 2 15 -6 0 -14 -4 -17 -10 -4 -6 -13 -5 -25 2 -14 9 -25 9 -44 0 -20
-9 -24 -9 -20 3 4 10 0 12 -15 8 -13 -3 -21 -1 -21 7 0 7 -7 10 -15 6 -9 -3
-18 1 -21 9 -3 8 -12 11 -21 8 -11 -4 -14 -2 -9 5 4 7 2 12 -4 12 -6 0 -8 5
-4 12 5 7 3 8 -6 3 -7 -4 -16 -2 -21 6 -4 8 -13 15 -19 15 -5 1 -15 2 -21 3
-6 0 -9 10 -6 22 4 17 3 18 -9 8 -11 -9 -18 -8 -34 6 -11 10 -26 15 -35 11
-18 -6 -13 6 14 38 16 19 15 19 -12 1 -32 -20 -46 -14 -26 12 11 15 10 15 -9
-1 -12 -11 -22 -14 -22 -9 0 6 7 16 15 23 19 16 4 37 -17 24 -25 -16 -51 -15
-44 1 4 12 1 14 -12 7 -9 -4 -37 -7 -62 -6 -51 1 -90 -13 -90 -33 0 -7 -9 -22
-20 -33 -12 -12 -15 -20 -8 -20 9 0 8 -4 -2 -10 -12 -8 -13 -12 -2 -19 11 -6
9 -10 -7 -14 -12 -3 -24 -13 -28 -24 -3 -10 -10 -20 -13 -23 -16 -12 -72 -141
-77 -177 -4 -33 -10 -40 -39 -49 -21 -7 -37 -7 -43 -1 -5 5 -12 1 -16 -12 -3
-12 -10 -21 -15 -21 -5 0 -7 8 -3 18 4 12 1 11 -11 -5 -9 -12 -13 -30 -10 -40
5 -14 4 -15 -4 -4 -13 18 -38 23 -40 7 -6 -45 -16 -76 -24 -76 -5 0 -6 5 -2
11 4 8 0 8 -15 0 -24 -13 -29 -26 -7 -18 8 3 17 -2 21 -11 5 -14 7 -14 15 -2
5 8 12 11 16 8 3 -4 -1 -14 -10 -23 -9 -9 -16 -12 -16 -7 0 6 -9 8 -20 5 -11
-3 -20 -9 -20 -14 0 -5 -10 -8 -22 -6 -13 2 -17 2 -10 0 17 -6 15 -39 -5 -70
-16 -24 -17 -24 -25 -7 -7 15 -8 14 -5 -7 3 -22 0 -25 -19 -21 -16 3 -24 -2
-29 -19 -5 -14 -3 -25 4 -27 6 -2 11 -8 11 -14 0 -6 -7 -8 -15 -4 -8 3 -15 1
-15 -4 0 -6 -13 -10 -28 -10 -15 0 -33 -5 -39 -11 -8 -8 -17 -6 -34 10 -13 11
-29 21 -37 21 -18 0 -69 51 -74 76 -2 10 -9 18 -16 17 -7 -2 -11 7 -9 20 2 17
-2 21 -20 19 -12 -2 -24 2 -28 8 -10 17 -25 11 -19 -7 4 -11 3 -14 -3 -7 -11
15 -49 34 -67 34 -14 0 -16 -107 -16 -1087 l0 -1088 407 3 c452 4 973 -6 973
-18 0 -13 -60 -30 -109 -30 -48 -1 -120 -29 -74 -30 12 0 25 -5 29 -11 5 -9
-1 -10 -20 -5 -14 3 -26 2 -26 -3 0 -16 -61 -31 -129 -31 -36 0 -72 -4 -79 -8
-21 -14 32 -32 96 -33 31 -1 45 -4 29 -6 -15 -2 -25 -9 -22 -14 4 -5 -11 -9
-32 -9 -49 0 -74 -15 -41 -23 12 -4 46 -7 73 -8 l50 -2 -50 -7 c-27 -5 -106
-9 -175 -10 -109 -2 -117 -4 -62 -10 70 -8 94 -20 40 -20 -64 0 -158 -13 -158
-21 0 -5 12 -11 28 -15 15 -3 37 -11 50 -17 32 -15 4 -30 -34 -17 -16 5 -36 9
-44 8 -8 -1 -34 3 -57 10 -31 9 -52 10 -75 2 l-33 -10 33 5 c23 3 31 1 26 -7
-5 -7 1 -9 19 -4 14 3 27 2 29 -2 4 -11 209 -59 501 -117 126 -25 239 -50 253
-55 27 -11 32 -30 8 -30 -50 0 -812 -275 -859 -310 -5 -4 -22 -10 -37 -14 -14
-3 -34 -9 -45 -12 -17 -5 -17 -4 1 10 11 9 14 16 7 16 -7 0 -10 4 -7 9 7 10
-88 111 -104 111 -6 0 -8 4 -5 10 3 6 -1 7 -9 4 -9 -3 -16 -1 -16 6 0 6 -5 8
-11 4 -8 -5 -9 3 -3 27 12 47 9 122 -5 158 -24 56 -97 87 -150 65 -43 -18
-181 -152 -181 -176 0 -10 3 -18 6 -18 4 0 45 36 92 81 80 76 88 81 121 75 48
-7 71 -34 77 -89 9 -72 6 -75 -68 -64 -34 5 -71 9 -81 9 -10 -1 -15 4 -11 10
8 12 8 12 -74 -27 l-62 -30 1 -92 c2 -96 9 -110 46 -96 24 8 9 -7 -19 -21
l-23 -12 -2 -341 c-2 -274 0 -343 11 -352 10 -8 17 -7 27 6 12 14 12 16 -2 11
-9 -4 -16 -1 -16 7 0 12 5 12 25 1 21 -11 30 -11 53 1 29 15 47 33 32 33 -5 0
-14 -5 -21 -12 -7 -7 -12 -8 -12 -2 0 6 12 16 26 22 14 7 23 8 19 2 -3 -5 -1
-10 5 -10 6 0 13 7 16 15 4 8 11 12 16 9 6 -4 5 -10 -3 -15 -8 -5 -9 -9 -4 -9
18 0 38 17 32 27 -4 6 5 15 18 21 14 7 25 16 25 22 0 7 9 9 22 5 23 -7 23 -7
3 9 -16 13 -17 15 -2 10 9 -3 23 -1 31 5 7 6 16 8 19 4 4 -3 7 -1 7 6 0 8 7
11 15 7 8 -3 15 -1 15 5 0 6 9 8 22 3 22 -6 22 -6 -2 15 -22 20 -22 21 -3 12
27 -13 36 -14 28 -2 -3 5 4 12 15 16 11 4 17 11 14 17 -5 7 -2 8 5 3 8 -4 25
2 42 14 16 12 40 26 54 31 15 6 24 14 20 19 -8 14 33 34 53 26 9 -3 13 -3 9 2
-8 7 145 41 191 42 31 1 19 -15 -16 -22 -16 -3 -53 -20 -81 -37 -29 -17 -58
-27 -64 -24 -7 4 -9 4 -5 -1 6 -6 -169 -104 -567 -315 -68 -36 -70 -38 -73
-78 l-3 -41 258 132 258 132 85 1 c101 1 313 19 389 34 97 18 121 10 31 -12
-47 -11 -101 -24 -120 -29 -19 -4 -62 -25 -95 -45 -77 -47 -206 -121 -480
-274 -121 -67 -244 -136 -273 -152 l-52 -30 2 -176 3 -177 60 1 c156 4 234 10
213 15 -21 5 -20 6 9 10 18 3 30 2 27 -3 -3 -4 5 -8 18 -9 23 -1 23 -1 -2 -9
-35 -11 -3 -11 44 -1 38 9 39 -2 1 -13 -11 -3 -8 -4 8 -2 16 2 34 -3 41 -10 8
-7 16 -11 19 -7 3 3 19 -2 36 -10 21 -11 55 -14 121 -12 87 3 135 14 77 16
-39 2 -45 3 -53 12 -10 10 22 8 75 -4 24 -5 46 -8 48 -5 3 2 -22 10 -54 17
-50 10 -54 13 -33 20 14 4 18 8 10 9 -21 3 48 22 87 24 17 1 35 5 40 10 5 5 1
7 -9 3 -10 -4 -18 -2 -18 3 0 14 17 12 43 -3 12 -8 38 -13 57 -12 19 1 90 2
158 3 74 1 121 6 117 11 -3 6 15 9 42 9 82 -2 139 3 121 10 -10 4 78 6 194 6
207 -2 211 -2 215 -23 2 -14 -3 -21 -15 -22 -9 -1 1 -7 23 -14 l40 -13 -40 -3
c-37 -2 -36 -3 15 -9 30 -4 44 -8 30 -9 -14 -1 -32 -6 -40 -11 -11 -7 -7 -10
19 -10 72 0 19 -11 -80 -16 -112 -6 -153 -17 -54 -14 91 2 224 -2 192 -7 -15
-2 -25 -8 -22 -13 3 -4 136 -9 297 -9 161 -1 296 -5 300 -9 4 -4 -117 -6 -268
-5 -152 1 -273 -1 -270 -5 4 -3 142 -7 309 -8 166 -1 291 2 277 5 -14 4 9 7
54 7 75 0 79 -12 6 -17 -113 -9 321 -13 625 -6 283 7 600 4 752 -6 7 0 10 -4
7 -9 -3 -5 17 -5 48 -1 61 9 897 10 1033 1 56 -4 77 -3 55 2 -102 24 -92 28
65 23 88 -3 309 -8 490 -12 l330 -8 -425 -4 c-234 -2 -352 -5 -262 -6 89 -2
162 -7 162 -11 0 -8 -733 -5 -817 3 -30 3 -54 1 -58 -5 -4 -6 7 -11 27 -11 18
-1 -12 -5 -67 -10 -59 -4 -104 -4 -110 2 -5 5 -61 10 -125 11 l-115 2 110 5
c61 4 103 9 95 12 -8 3 -78 2 -155 -4 -77 -5 -288 -10 -470 -11 -676 -5 -873
-8 -795 -16 42 -4 196 -7 343 -6 147 0 267 -2 267 -6 0 -5 -28 -9 -62 -10
l-63 -2 58 -3 c32 -2 64 0 71 6 11 9 341 16 586 13 221 -3 685 -4 695 -2 6 2
27 0 49 -5 28 -6 40 -4 47 6 5 8 9 10 9 4 0 -6 110 -10 312 -9 172 1 282 -2
243 -6 -47 -4 -2 -7 140 -8 130 0 202 3 190 8 -12 6 41 7 135 3 85 -3 157 -8
160 -10 3 -2 -49 -4 -115 -4 -66 0 -237 -4 -380 -9 -143 -4 -313 -6 -378 -4
-84 3 -117 2 -112 -6 4 -6 14 -10 23 -9 63 6 723 -4 707 -11 -14 -6 0 -9 45
-9 36 0 76 -1 90 -2 33 -2 227 -3 318 -2 39 1 72 -3 72 -8 0 -5 -171 -9 -402
-9 -779 -1 -1287 -6 -1294 -13 -4 -4 -12 -7 -18 -7 -6 0 -4 5 4 10 17 11 -107
12 -125 2 -18 -11 -191 -13 -175 -2 8 5 10 10 5 10 -6 0 -16 -5 -21 -10 -12
-12 -263 -27 -253 -16 4 4 44 9 89 11 178 9 77 14 -243 13 -185 -1 -334 -5
-331 -9 2 -5 -64 -8 -147 -8 -84 -1 -154 -3 -157 -6 -7 -6 183 -10 258 -5 30
2 98 3 150 3 52 -1 394 -4 760 -7 366 -3 706 -6 755 -7 50 -1 158 -1 240 0 83
1 155 1 160 0 71 -15 -651 -17 -1880 -7 -216 2 -286 -1 -279 -13 4 -7 50 -9
130 -6 68 2 124 1 124 -4 0 -4 -15 -10 -32 -12 -28 -3 -27 -4 10 -5 27 -1 41
2 37 8 -4 6 34 10 107 9 77 0 107 -3 93 -10 -14 -6 -5 -7 30 -4 28 2 57 4 65
4 8 0 153 -1 322 -2 170 -1 308 0 308 3 0 10 819 -1 826 -12 5 -8 -44 -14 -76
-9 -32 5 -55 1 -58 -9 -6 -16 -22 -12 -22 6 0 14 -16 15 -132 9 -73 -4 -135
-9 -138 -12 -3 -2 50 -3 117 -2 67 2 125 0 129 -4 4 -4 -142 -7 -325 -7 -205
0 -330 4 -326 9 3 6 -43 11 -116 13 -66 2 -123 0 -126 -4 -2 -5 27 -8 66 -8
38 0 72 -4 75 -9 3 -5 -59 -6 -147 -3 -83 2 -153 8 -155 11 -1 4 -34 5 -72 3
-50 -3 -70 -1 -70 8 0 7 -10 10 -27 6 -23 -5 -141 -15 -190 -16 -7 0 -13 -4
-13 -8 0 -4 70 -8 157 -7 86 0 145 -3 132 -6 -13 -4 -77 -7 -142 -8 -86 -1
-122 -5 -132 -15 -8 -7 -11 -16 -8 -20 12 -11 23 -6 23 10 0 15 10 16 83 11
45 -4 172 -2 282 3 205 9 274 7 118 -4 -48 -4 -96 -11 -105 -17 -10 -5 -18 -6
-18 -2 0 5 -72 8 -159 8 -88 0 -154 -3 -148 -7 8 -5 6 -8 -5 -8 -10 0 -18 5
-18 10 0 6 -4 10 -10 10 -5 0 -10 -7 -10 -16 0 -13 8 -15 40 -12 22 2 40 1 40
-2 0 -3 28 -4 63 -3 79 4 149 -5 141 -18 -3 -6 -43 -8 -97 -5 -51 2 -78 2 -62
0 69 -10 74 -13 73 -42 0 -15 7 -40 15 -56 12 -23 13 -33 5 -44 -9 -10 -8 -16
3 -23 8 -5 19 -9 25 -9 6 0 17 -6 23 -14 9 -11 5 -20 -19 -45 -28 -28 -35 -30
-76 -24 -47 6 -57 -4 -24 -25 11 -7 20 -18 20 -26 0 -15 21 -26 51 -26 28 0
23 -23 -10 -43 -37 -22 -94 -22 -128 1 -17 10 -47 17 -78 17 -47 0 -50 1 -53
28 -2 16 -10 31 -18 34 -23 9 -63 -6 -74 -27 -9 -17 -6 -22 22 -35 18 -8 41
-20 50 -27 14 -10 22 -10 38 0 31 19 47 15 71 -19 28 -39 20 -56 -42 -86 -53
-27 -101 -29 -140 -6 -31 19 -36 32 -17 51 9 9 9 12 -2 13 -54 2 -90 20 -90
44 0 7 -10 15 -23 19 -13 3 -27 18 -34 36 -9 25 -17 30 -43 30 -29 0 -32 2
-26 26 6 24 5 25 -28 19 -37 -7 -76 8 -76 30 0 7 14 24 32 36 22 16 27 24 17
27 -22 7 -51 42 -46 55 6 17 3 32 -5 29 -5 -1 -8 4 -8 12 0 8 -5 16 -10 18 -6
2 -12 13 -15 26 -4 21 -1 22 76 22 71 0 80 2 77 18 -2 12 -13 17 -38 18 l-35
2 33 -5 c17 -2 32 -9 32 -15 0 -6 -34 -9 -93 -6 -85 3 -93 1 -89 -15 7 -29
-17 -19 -39 15 -12 18 -18 24 -14 13 40 -111 11 -208 -87 -288 -171 -138 -500
-206 -791 -162 -254 38 -426 139 -475 280 -17 51 -21 55 -21 29 -1 -36 38
-116 77 -157 14 -15 47 -42 74 -60 49 -33 59 -47 33 -47 -51 0 -149 84 -161
138 -19 86 -23 64 -18 -90 5 -151 4 -168 -11 -168 -30 0 -53 19 -48 39 4 14
-1 21 -19 24 -23 4 -23 4 0 6 l22 1 -21 21 c-13 13 -18 27 -14 40 5 15 2 19
-18 19 -21 0 -66 35 -56 44 2 2 18 8 34 14 28 10 28 11 5 10 -57 -3 -70 1 -63
19 4 10 11 21 17 25 8 5 7 8 -1 8 -7 0 -11 17 -11 48 1 65 -3 110 -9 91 -3
-11 -12 -14 -33 -11 -28 4 -30 3 -24 -25 17 -84 -59 -188 -186 -257 -83 -44
-102 -43 -31 2 106 69 161 145 161 224 0 35 -23 98 -36 98 -2 0 3 -14 12 -32
19 -37 15 -97 -11 -152 -21 -44 -121 -128 -183 -153 -35 -15 -42 -22 -37 -39
4 -18 -3 -25 -38 -40 -60 -25 -293 -33 -346 -11 -20 9 -58 20 -85 27 -57 13
-171 68 -212 103 -16 14 -38 40 -48 58 -18 31 -15 30 30 -14 132 -131 346
-167 584 -100 137 39 276 127 301 191 18 46 10 123 -15 167 -48 81 -181 163
-311 190 -116 24 -306 0 -419 -53 -131 -62 -195 -134 -213 -242 l-7 -45 -8 44
c-6 36 -4 47 10 58 9 8 11 12 4 8 -25 -13 -11 27 28 80 22 30 40 57 40 61 0 4
-15 -11 -33 -35 l-32 -42 -5 33 c-3 18 -3 48 -1 66 4 35 11 37 65 16 9 -3 16
-2 16 4 0 10 -42 24 -205 71 l-100 28 -3 38 c-2 24 2 41 10 46 11 7 11 9 0 9
-7 0 -11 4 -7 9 4 8 -97 -39 -317 -146 l-37 -18 -1 -262 0 -263 38 1 c20 1 51
5 67 9 29 7 29 8 -10 9 -53 2 -26 21 30 21 30 0 36 3 25 10 -13 8 -13 10 2 10
9 0 19 -6 21 -12 4 -10 7 -10 15 0 5 7 13 12 18 11 5 -1 20 -1 33 0 24 1 24 1
5 16 -19 15 -19 16 1 13 23 -3 86 21 97 36 4 6 8 21 8 33 0 17 12 28 46 44 80
36 150 7 173 -73 18 -61 44 -109 76 -141 43 -42 155 -93 260 -117 52 -13 95
-26 95 -30 0 -4 -71 -12 -157 -19 -87 -7 -159 -14 -162 -16 -2 -3 275 -5 617
-5 531 0 621 2 616 14 -3 8 -16 17 -28 20 -18 4 -22 11 -19 31 5 24 11 26 73
16 3 -1 -2 -6 -10 -12 -11 -8 -12 -12 -3 -16 8 -3 11 -14 7 -29 l-6 -24 4128
0 4129 1 -135 50 c-74 27 -187 68 -250 90 -123 42 -148 54 -138 64 7 7 138
-36 396 -131 96 -35 176 -64 178 -64 2 0 4 74 4 165 l0 166 -75 47 c-75 48
-93 68 -76 85 6 6 35 -6 78 -31 l68 -40 3 220 c1 122 1 222 0 224 -2 1 -17 5
-33 9 l-30 6 25 -15 c25 -15 25 -15 -15 -14 -22 0 -71 -4 -108 -10 -38 -6 -74
-9 -80 -7 -7 2 -57 6 -112 9 -88 5 -127 10 -145 16 -3 1 -18 1 -35 1 -16 -1
-37 3 -45 9 -13 9 -12 12 4 25 45 34 128 50 259 49 71 -1 138 -6 150 -12 32
-15 158 -44 165 -37 3 3 -1 5 -9 5 -12 0 -11 2 1 10 10 6 11 12 5 18 -11 11
-175 36 -330 52 -55 6 -106 11 -113 12 -6 1 -10 3 -7 6 2 3 -2 14 -10 26 -20
28 -19 71 3 87 15 13 16 12 4 -3 -12 -15 -11 -23 8 -53 12 -19 35 -42 52 -51
29 -15 49 -11 109 22 3 2 15 -3 25 -12 18 -14 17 -14 -6 -3 -22 10 -23 10 -10
-4 15 -16 266 -64 277 -54 11 11 -8 25 -42 31 -19 4 -39 14 -44 24 -9 15 -10
15 -11 -3 l-1 -20 -9 20 c-5 11 -9 14 -9 7 -1 -7 -5 -10 -11 -7 -6 4 -5 11 3
19 6 8 15 12 18 10 4 -2 12 2 18 10 15 18 -11 30 -28 13 -9 -9 -10 -8 -5 7 6
16 4 18 -11 12 -11 -4 -16 -4 -12 0 4 4 2 13 -4 20 -6 7 -8 22 -4 34 6 20 7
20 38 -3 18 -13 50 -31 73 -40 l41 -16 2 77 c2 69 0 78 -21 95 l-23 18 23 -11
c31 -15 29 6 -4 32 -20 16 -24 28 -22 56 3 41 28 57 28 18 0 -13 5 -28 10 -31
15 -9 12 88 -2 104 -10 11 -10 13 0 7 9 -6 12 140 12 712 0 395 -3 722 -7 725
-3 4 -15 0 -25 -10 -13 -11 -18 -12 -18 -3 0 9 -3 10 -13 1 -8 -6 -17 -8 -20
-4 -4 3 -7 1 -7 -6 0 -7 -4 -9 -10 -6 -5 3 -10 1 -10 -4 0 -6 -6 -11 -13 -11
-12 0 -102 -43 -162 -78 -16 -10 -45 -19 -64 -21 -32 -3 -33 -2 -27 26 11 43
48 94 120 165 51 51 73 82 105 153 23 50 48 101 57 115 8 14 20 37 25 53 6 15
14 27 19 27 4 0 17 22 29 49 20 48 21 64 21 436 l0 386 -33 -30 c-17 -17 -35
-31 -39 -31 -5 0 -8 -6 -8 -13 0 -13 -40 -43 -53 -39 -5 1 -6 -2 -3 -6 3 -5
-3 -17 -14 -27 -11 -10 -20 -24 -20 -31 0 -7 -8 -10 -19 -7 -13 3 -21 -2 -26
-17 -6 -20 -7 -21 -21 -3 -8 10 -13 14 -12 8 1 -5 -5 -23 -15 -40 l-16 -30 -2
30 -1 30 -8 -32 c-4 -18 -6 -44 -5 -58 2 -14 -1 -25 -7 -25 -6 0 -8 6 -5 13 2
6 1 21 -4 32 -7 19 -8 19 -8 -2 -1 -23 -31 -86 -44 -91 -4 -2 -7 -12 -7 -22 0
-11 -11 -30 -25 -44 -14 -14 -25 -34 -25 -46 0 -11 -4 -20 -9 -20 -4 0 -14
-20 -21 -45 -7 -25 -17 -45 -22 -45 -6 0 -8 -7 -4 -15 3 -8 1 -15 -4 -15 -14
0 -12 22 5 44 19 25 19 33 1 33 -8 0 -11 -8 -8 -20 4 -16 1 -18 -19 -12 -19 5
-21 4 -9 -4 13 -10 13 -12 0 -21 -10 -6 -11 -10 -2 -10 6 0 12 -8 12 -17 0
-15 -2 -16 -10 -3 -7 12 -12 10 -29 -9 -12 -13 -21 -28 -21 -32 0 -5 -7 -5
-17 -2 -11 5 -14 3 -9 -6 5 -7 17 -11 27 -8 11 3 19 1 19 -4 0 -5 -19 -9 -42
-9 l-43 0 35 -18 35 -17 -30 -6 c-17 -4 -23 -7 -14 -8 27 -2 32 -31 6 -31 -12
0 -17 -4 -12 -8 6 -4 11 -12 12 -19 2 -9 -5 -9 -28 -1 -16 6 -33 8 -36 4 -4
-3 0 -6 7 -6 7 0 21 -7 31 -16 17 -15 17 -17 -4 -39 -12 -12 -27 -20 -33 -18
-7 2 -15 -1 -20 -8 -4 -8 -3 -10 4 -5 8 5 10 2 6 -8 -3 -9 -9 -14 -12 -13 -4
1 -21 -7 -39 -18 -23 -13 -29 -22 -23 -31 12 -13 -37 -67 -52 -58 -6 4 -2 -6
8 -22 18 -27 18 -28 1 -21 -10 4 -16 3 -13 -1 3 -5 -1 -20 -9 -35 -10 -19 -10
-27 -2 -31 9 -5 9 -8 -1 -12 -6 -3 -10 -10 -6 -15 3 -5 -3 -9 -13 -9 -15 0
-16 -2 -3 -10 13 -9 13 -12 -2 -24 -22 -16 -24 -30 -4 -23 10 4 13 1 9 -9 -3
-7 -13 -14 -22 -14 -14 0 -14 -2 -1 -10 12 -8 13 -11 1 -19 -11 -7 -11 -9 0
-14 9 -3 5 -6 -7 -6 -14 -1 -21 -7 -20 -18 0 -10 -9 -20 -24 -24 -14 -4 -19
-7 -12 -8 27 -2 12 -38 -20 -49 -27 -8 -29 -10 -10 -11 22 -1 22 -2 6 -26 -9
-14 -20 -22 -25 -19 -5 3 -9 2 -9 -1 0 -3 14 -11 32 -17 l32 -11 -25 -10 c-13
-5 -31 -10 -39 -11 -8 -2 -15 -7 -15 -12 -1 -17 -50 -84 -62 -84 -7 0 -13 -4
-13 -10 0 -5 5 -10 10 -10 6 0 2 -10 -9 -22 -12 -12 -23 -35 -27 -52 -4 -21
-23 -45 -60 -75 -29 -24 -51 -48 -48 -53 3 -4 1 -8 -5 -8 -8 0 -61 -84 -61
-98 0 -3 12 6 28 20 57 54 143 77 156 42 18 -47 -19 -150 -62 -169 -12 -6 -20
-16 -17 -23 3 -9 -7 -6 -29 7 -33 20 -33 21 -50 2 -13 -15 -30 -19 -67 -18
-47 1 -49 2 -61 36 -23 65 -13 165 27 291 21 63 52 149 71 190 19 41 28 67 20
57 -7 -9 -22 -17 -32 -17 -11 0 -30 -10 -44 -23 -14 -12 -47 -40 -75 -61 -27
-22 -75 -66 -106 -99 l-56 -59 -20 48 c-12 27 -32 86 -46 132 -23 73 -24 84
-10 89 10 4 22 -3 33 -17 l17 -23 7 45 c4 24 16 61 26 81 11 20 20 44 20 52 0
17 -35 20 -46 4 -4 -8 -9 -7 -15 2 -7 11 -9 11 -9 1 0 -7 -4 -11 -9 -8 -4 3
-7 18 -5 33 1 15 -3 31 -9 35 -9 6 -8 10 3 17 12 8 10 12 -10 19 -14 6 -31 19
-39 30 -8 12 -21 18 -32 15 -21 -6 -25 7 -7 25 9 9 9 12 0 12 -7 0 -12 -4 -12
-8 0 -4 -14 -13 -30 -19 l-31 -11 5 91 c4 68 0 116 -14 187 -29 141 -27 184
15 267 40 80 95 140 245 268 58 49 107 92 110 95 29 34 213 176 266 206 38 21
87 49 109 61 141 80 238 120 349 143 31 6 54 15 52 18 -2 4 19 5 46 3 31 -2
48 1 44 7 -3 5 -16 7 -29 5 -18 -4 -23 0 -23 16 0 12 6 21 13 21 7 0 13 -4 13
-9 0 -5 16 -15 36 -21 29 -10 38 -10 44 0 5 8 10 9 14 2 4 -7 23 -6 56 3 123
32 229 26 378 -24 l52 -18 0 245 0 245 -122 -6 c-177 -9 -263 -37 -400 -130
-38 -25 -68 -43 -68 -41 0 7 93 89 149 131 118 90 229 134 374 148 l67 7 0
2699 0 2699 -1609 0 -1608 0 -6 -127 c-3 -71 -13 -164 -21 -208 -32 -170 -59
-282 -77 -322 -22 -49 -23 -59 -6 -67 6 -4 2 -4 -9 -2 -19 3 -22 -2 -28 -48
-14 -120 -2 -268 27 -321 6 -11 10 -23 9 -27 -1 -4 6 -4 15 -1 10 4 14 2 10
-4 -4 -6 3 -8 18 -5 20 3 25 0 25 -16 0 -12 -6 -25 -13 -29 -21 -12 -45 -55
-51 -88 -2 -16 -8 -97 -12 -180 -3 -82 -10 -159 -15 -170 -4 -11 -8 -14 -8 -7
-1 7 -5 11 -10 8 -5 -3 -12 2 -17 12 -6 12 -9 5 -13 -28 -5 -34 -2 -47 9 -51
8 -4 -32 -5 -90 -3 -58 1 -94 1 -80 -2 51 -10 155 -47 143 -51 -7 -3 -55 9
-107 26 -86 28 -108 31 -238 33 -131 2 -136 2 -58 8 47 3 76 7 64 8 -19 2 -20
7 -17 115 l3 112 28 0 c45 0 50 9 51 97 1 46 6 121 11 168 13 109 13 237 0
245 -6 4 -6 15 0 30 l10 25 -38 -15 -37 -15 33 26 c26 21 30 29 21 40 -9 11
-9 14 1 14 10 0 10 3 1 14 -8 10 -11 80 -10 234 1 150 -3 227 -11 241 -6 12
-16 50 -21 84 -10 63 -23 128 -41 205 l-11 42 -628 0 c-346 0 -629 -4 -629 -8
0 -5 -13 -98 -29 -208 -16 -109 -34 -246 -40 -304 -6 -58 -20 -179 -31 -270
-11 -91 -21 -182 -23 -202 -2 -20 -11 -44 -21 -53 -9 -9 -16 -13 -16 -9 0 5
-5 3 -12 -4 -18 -18 -25 -15 -33 16 l-8 27 -7 -25 -8 -25 -1 24 c-1 15 -6 21
-15 18 -7 -3 -19 0 -25 6 -8 8 -11 8 -11 -1 0 -7 5 -12 10 -12 6 0 10 -7 10
-15 0 -9 -9 -15 -21 -15 -18 0 -20 4 -15 26 4 14 3 23 -2 20 -5 -3 -6 9 -4 26
3 22 1 29 -7 24 -6 -4 -8 -12 -5 -18 4 -5 -5 -3 -19 6 -14 10 -27 25 -30 35
-2 11 -21 24 -43 31 -42 14 -90 49 -89 65 0 6 -10 14 -22 20 -12 5 -24 22 -28
40 -5 21 -9 25 -12 13 -2 -10 -11 -18 -18 -18 -14 0 -45 26 -45 38 0 11 49 31
52 21 2 -5 4 14 4 41 1 28 -3 50 -7 50 -5 0 -9 12 -9 28 0 24 -22 75 -76 172
-10 19 -22 37 -25 40 -11 9 -68 139 -80 182 -18 68 -39 171 -39 195 l0 23
-2200 0 -2200 0 2 -1762z m4471 741 c23 -12 94 -53 157 -92 63 -38 165 -99
225 -135 217 -129 288 -176 305 -205 16 -26 18 -61 18 -389 0 -198 -3 -371 -8
-384 -11 -27 -20 -34 -420 -280 -241 -148 -312 -188 -340 -188 -26 0 -64 17
-145 65 -60 37 -180 108 -265 159 -85 51 -196 117 -246 146 -125 74 -127 77
-132 183 -4 71 -2 89 11 94 12 4 15 -9 19 -74 6 -93 11 -101 117 -166 483
-295 603 -363 641 -363 28 0 72 23 253 133 83 51 184 111 222 132 156 86 232
141 243 177 14 46 22 371 13 562 l-7 159 -31 27 c-17 16 -132 88 -255 160
-122 73 -263 157 -312 186 -57 35 -101 54 -121 54 -20 0 -78 -26 -165 -76
-326 -184 -537 -309 -565 -336 l-30 -28 -6 -178 c-3 -97 -6 -148 -7 -112 -1
35 -7 112 -14 170 -6 58 -8 118 -4 134 13 53 54 81 523 350 268 154 257 150
326 115z m4091 -142 c3 -17 4 -142 3 -277 l-2 -245 -345 -2 c-190 -1 -339 1
-332 4 7 3 12 24 12 51 0 55 9 92 21 92 5 0 9 -15 10 -32 0 -28 2 -30 9 -13 6
15 9 6 9 -32 1 -46 -2 -52 -21 -56 -13 -2 47 -5 134 -6 l156 -1 6 103 c13 227
13 367 0 367 -7 0 -19 3 -28 6 -14 5 -16 -19 -17 -232 0 -143 -4 -231 -9 -219
-5 11 -9 120 -9 243 l-1 222 44 0 c28 0 55 -8 77 -23 l34 -23 3 -217 c2 -194
1 -217 -14 -217 -14 0 -15 23 -13 215 3 183 1 217 -11 225 -8 5 -17 10 -20 10
-3 0 -7 -104 -8 -230 l-4 -230 51 0 51 0 0 121 c0 119 0 120 23 117 21 -3 22
-7 25 -120 l3 -118 74 0 75 0 2 33 c1 17 0 140 -2 272 -2 206 -5 242 -19 253
-14 11 -13 12 6 2 14 -6 24 -22 27 -43z m-6863 -60 c-11 -14 -11 -15 66 -78
18 -15 29 -30 26 -33 -4 -3 2 -6 13 -6 12 0 1 -12 -33 -35 -28 -19 -54 -39
-58 -44 -3 -6 -12 -8 -21 -4 -13 5 -13 8 1 29 24 37 -5 86 -63 105 -25 8 -36
8 -49 -3 -15 -12 -15 -11 -5 8 20 37 72 74 104 74 24 0 28 -3 19 -13z m1237
-107 c-3 -20 0 -30 9 -30 7 0 13 7 13 15 0 8 5 15 11 15 5 0 7 -4 4 -10 -3 -5
-1 -10 4 -10 6 0 11 4 11 9 0 5 7 12 16 15 15 6 14 3 -1 -21 -14 -21 -15 -25
-3 -15 13 11 21 8 47 -14 29 -24 65 -74 44 -61 -5 3 -15 2 -23 -4 -11 -6 -7
-9 15 -9 27 0 30 -4 33 -32 9 -99 3 -155 -17 -171 -12 -10 -14 -9 -8 6 4 11 3
16 -3 12 -6 -3 -13 1 -16 9 -3 9 -11 13 -18 10 -6 -3 -4 0 5 8 9 7 14 19 12
26 -3 7 1 10 10 6 8 -3 17 2 21 12 5 13 4 15 -7 5 -18 -14 -42 11 -33 35 3 9
-5 30 -21 51 -26 34 -26 36 -9 49 11 7 23 11 29 7 6 -3 7 -1 4 4 -8 13 -57 14
-54 1 1 -6 -4 -13 -10 -15 -8 -3 -13 3 -13 13 0 16 -3 15 -16 -5 -15 -20 -18
-21 -26 -7 -6 10 -19 14 -38 12 -22 -2 -30 1 -31 13 -1 13 -2 13 -6 -2 -2 -9
-9 -15 -14 -11 -5 3 -7 11 -3 17 3 7 -1 4 -9 -6 -15 -18 -15 -18 -20 0 -4 15
-5 15 -6 -3 -1 -14 -7 -21 -18 -20 -24 2 -34 -45 -14 -62 14 -11 14 -12 -4 -8
-24 7 -38 -2 -54 -31 -9 -18 -9 -23 1 -23 10 0 10 -3 -1 -9 -24 -15 -4 -41 31
-42 24 -1 27 -3 11 -6 -37 -7 -27 -38 25 -80 26 -20 55 -46 65 -56 14 -13 22
-15 32 -7 10 8 15 8 21 -1 5 -8 3 -10 -7 -5 -8 4 -5 0 5 -8 11 -9 23 -16 28
-16 12 0 21 48 15 83 -5 31 -5 31 6 6 12 -26 34 -28 49 -5 5 7 12 4 22 -9 11
-13 18 -16 23 -9 5 6 19 13 33 17 l25 6 -25 -17 c-50 -34 -90 -75 -96 -97 -5
-21 -7 -21 -42 -9 -31 11 -41 10 -60 -3 -24 -15 -24 -14 -17 16 6 28 4 31 -20
31 -14 0 -28 -7 -31 -15 -5 -12 -15 -10 -57 12 -51 25 -51 26 -27 36 l25 10
-25 5 c-14 2 -35 13 -47 25 l-23 20 -42 -32 c-35 -26 -37 -27 -12 -4 60 54 72
62 78 50 3 -7 3 2 -1 18 -3 17 -6 35 -7 40 0 6 -9 13 -18 17 -24 10 -23 35 3
48 19 11 20 12 3 24 -16 12 -16 15 4 48 41 66 128 133 189 144 17 3 20 0 17
-18 -3 -19 -1 -18 8 4 6 15 19 29 27 31 9 3 18 5 20 6 2 0 1 -12 -1 -29z
m2832 8 c18 11 20 10 20 -11 0 -12 7 -33 16 -45 8 -12 12 -22 9 -22 -3 0 -3
-5 1 -11 4 -8 9 -7 15 2 6 10 12 9 28 -5 22 -20 29 -72 11 -78 -5 -1 -11 -27
-12 -55 -3 -50 -4 -53 -30 -53 -34 0 -45 -17 -23 -34 14 -10 15 -17 6 -34 -13
-24 -49 -52 -68 -52 -8 0 -19 12 -25 26 -11 23 -17 25 -47 20 -30 -5 -39 0
-81 42 -25 26 -54 59 -64 74 -17 27 -17 29 2 70 11 24 28 69 37 100 15 49 22
59 49 67 52 17 80 17 108 1 23 -12 31 -13 48 -2z m1481 -137 c0 -69 2 -145 5
-168 l5 -43 -36 0 -36 0 2 158 c2 96 7 160 13 164 7 5 7 8 -1 8 -7 0 -13 4
-13 8 0 5 14 7 30 4 l30 -4 1 -127z m-2774 108 c34 -6 60 -15 57 -20 -3 -5 0
-9 5 -9 6 0 11 -9 11 -20 0 -27 21 -70 34 -70 6 0 28 5 49 11 21 5 46 7 56 4
53 -16 191 -195 177 -230 -3 -8 -34 -34 -70 -57 -60 -40 -64 -45 -59 -73 10
-61 26 -101 59 -148 19 -26 34 -51 34 -57 0 -11 -28 -19 -88 -24 -24 -2 -49
-9 -55 -17 -8 -9 -6 -8 8 1 18 14 19 13 7 -1 -6 -9 -23 -15 -37 -14 -20 3 -22
0 -15 -13 30 -56 52 -115 30 -82 -5 8 -10 10 -10 5 0 -6 8 -21 17 -34 16 -23
15 -25 -12 -47 -68 -54 -72 -54 -125 3 -27 28 -52 48 -55 45 -3 -3 -5 0 -5 7
0 9 -8 11 -21 8 -15 -4 -19 -2 -15 9 4 11 -4 14 -33 14 -21 0 -62 5 -91 10
-65 12 -81 8 -102 -27 -10 -16 -31 -43 -49 -61 l-31 -33 -22 20 c-12 12 -26
21 -32 21 -5 0 -2 -5 6 -11 13 -9 13 -10 0 -6 -8 2 -14 9 -13 14 1 6 -14 29
-33 52 -40 47 -42 40 33 123 42 46 42 47 29 80 -14 32 -17 33 -90 42 -60 7
-76 12 -76 25 0 14 -2 14 -10 1 -7 -11 -10 -5 -11 25 0 22 -1 63 -2 90 l-2 50
80 6 c44 3 73 6 65 7 -11 1 -16 12 -15 30 1 15 -12 53 -29 85 l-30 57 18 33
c25 43 57 78 67 72 4 -3 10 -1 14 5 3 5 30 10 60 10 30 0 57 5 60 11 4 6 14 8
22 5 8 -4 31 12 58 39 49 51 67 54 182 34z m2525 -331 c-5 -5 -16 -6 -25 -2
-14 5 -16 29 -19 164 l-3 159 25 3 25 3 3 -159 c1 -88 -1 -163 -6 -168z
m-3794 -69 c20 -29 23 -43 19 -91 -4 -50 -3 -58 12 -58 35 0 106 -56 125 -98
13 -29 26 -42 40 -43 17 -1 18 -2 3 -6 -14 -4 -17 -13 -15 -44 2 -32 -4 -45
-30 -72 -18 -18 -32 -38 -32 -44 0 -6 11 -36 25 -67 28 -64 35 -103 12 -71 -9
11 -19 15 -27 10 -9 -6 -11 -4 -5 4 8 14 -50 81 -70 81 -6 0 -22 -11 -35 -25
-30 -32 -42 -31 -63 4 -34 57 -19 70 73 67 33 -1 50 3 50 11 0 6 13 33 30 60
46 76 48 98 9 134 -18 17 -53 41 -78 54 l-46 23 -40 -35 c-22 -20 -53 -44 -70
-54 -16 -11 -25 -19 -18 -19 6 0 14 -14 18 -30 4 -18 11 -27 17 -24 6 4 8 2 5
-4 -9 -13 2 -44 13 -37 5 3 12 0 16 -6 4 -8 3 -9 -4 -5 -19 11 -14 -6 8 -29
l20 -21 -75 -39 c-41 -21 -78 -35 -82 -32 -3 4 15 16 40 27 45 20 46 22 33 43
-20 32 -38 130 -31 169 5 28 19 41 79 81 65 42 74 52 80 85 8 54 -10 107 -47
138 -21 18 -24 22 -7 12 14 -8 36 -30 48 -49z m3111 -331 c0 -87 3 -158 6
-158 12 0 81 56 81 65 -1 6 11 10 26 10 22 1 25 -2 15 -13 -6 -8 -13 -10 -14
-5 -2 5 -29 -15 -60 -44 l-57 -53 1 -57 2 -58 -14 55 -14 55 5 -60 c3 -33 7
-77 10 -97 5 -35 3 -38 -29 -51 -61 -26 -97 -31 -97 -13 0 9 3 15 8 14 4 -1
26 2 49 6 38 7 42 10 33 27 -7 13 -7 19 0 19 5 0 10 -5 10 -11 0 -5 4 -8 9 -5
4 3 6 17 3 32 -3 16 -7 21 -12 14 -5 -9 -9 -9 -14 -1 -9 14 -46 15 -46 1 0 -5
-6 -10 -14 -10 -8 0 -17 -10 -19 -22 -2 -13 -5 -2 -6 25 l-1 47 -45 0 c-28 0
-45 4 -45 12 0 14 -40 58 -52 58 -5 0 -6 -5 -2 -12 4 -6 8 -21 10 -32 1 -12 5
-28 9 -38 5 -12 -1 -18 -23 -22 -25 -6 -28 -11 -24 -35 4 -31 21 -40 82 -42
l35 -1 -30 -8 c-46 -12 -105 -11 -105 1 0 5 -4 8 -10 4 -5 -3 -18 3 -30 15
-11 11 -19 20 -17 20 1 0 17 -4 35 -9 18 -6 30 -6 28 -2 -3 4 -5 64 -5 132 0
139 1 161 6 155 2 -2 15 7 28 20 28 28 45 31 45 8 0 -8 4 -13 8 -10 5 3 14
-22 21 -56 7 -33 14 -58 17 -56 2 3 0 29 -6 58 -6 30 -7 62 -4 73 4 13 2 17
-5 13 -7 -5 -11 2 -11 18 0 14 4 26 10 26 5 0 7 -6 4 -14 -3 -7 2 -16 10 -19
11 -4 14 1 13 21 -2 23 2 27 29 30 l31 3 6 -77 c4 -42 7 -97 7 -121 0 -31 4
-43 13 -40 9 3 12 53 14 197 2 200 4 209 45 210 9 0 20 6 25 13 14 22 21 -42
22 -205z m-3354 121 c51 -57 50 -104 -7 -165 -23 -25 -61 -57 -85 -71 l-43
-25 -38 34 c-20 18 -46 40 -58 48 -59 43 -73 123 -28 159 15 12 32 21 38 21 6
0 2 -6 -9 -12 -55 -30 -59 -74 -10 -123 20 -19 40 -35 45 -35 5 0 25 14 43 30
19 17 40 30 47 30 7 0 25 -14 41 -31 25 -27 31 -30 46 -18 25 21 44 76 37 107
-12 48 -66 92 -116 92 -17 0 -19 3 -9 9 22 14 67 -7 106 -50z m3053 -16 c6 -9
12 -33 12 -54 0 -38 -14 -49 -67 -49 -14 0 -23 -7 -26 -22 -2 -13 -4 -9 -3 8
1 22 -2 30 -11 27 -27 -10 -29 91 -2 123 9 11 17 11 47 -2 21 -8 43 -22 50
-31z m1534 -27 c4 3 19 -3 34 -13 16 -10 25 -12 20 -5 -12 20 52 11 100 -14
l40 -21 17 20 c21 26 33 16 15 -13 -11 -18 -11 -23 0 -27 7 -3 26 -16 43 -30
27 -23 28 -27 14 -43 -22 -24 -19 -31 11 -20 36 14 36 13 19 -21 -20 -37 -15
-46 10 -19 10 11 22 20 27 20 16 0 7 -23 -17 -42 -14 -11 -25 -29 -24 -41 0
-21 1 -21 9 -2 15 36 23 -9 17 -91 -4 -60 -3 -74 9 -74 17 0 19 -46 2 -56 -7
-4 -18 2 -26 14 -8 12 -18 22 -23 22 -5 0 -2 -11 7 -25 9 -14 12 -25 6 -25 -6
0 -14 5 -17 10 -3 6 -11 10 -17 10 -7 0 -6 -5 2 -15 10 -12 5 -23 -25 -60
l-37 -45 28 -10 c40 -16 56 -31 46 -44 -5 -6 -12 -23 -16 -37 -5 -23 -11 -27
-40 -27 -29 0 -37 5 -51 32 l-16 31 4 -32 c5 -47 -8 -40 -19 10 -6 26 -14 42
-24 42 -8 0 -18 4 -22 9 -4 6 -10 -2 -13 -16 -6 -24 -10 -26 -77 -27 -55 -1
-77 3 -104 20 -19 11 -34 28 -34 36 0 14 -2 14 -18 0 -10 -10 -23 -17 -29 -17
-15 0 -65 59 -58 70 3 6 -1 7 -9 4 -9 -3 -16 -8 -16 -9 0 -2 18 -25 40 -50 22
-25 40 -50 40 -54 0 -13 -36 -41 -59 -46 -11 -2 -25 -6 -30 -9 -10 -6 -38 22
-43 44 -2 8 -7 18 -13 22 -6 4 4 22 24 42 26 27 31 37 22 48 -20 24 -61 89
-61 97 0 5 -9 11 -20 14 -27 7 -26 34 2 43 19 6 20 8 6 18 -16 12 -18 84 -3
119 5 13 2 17 -14 17 -12 0 -21 4 -21 9 0 18 45 80 58 81 6 0 11 3 11 8 -1 4
4 22 11 41 12 31 15 33 47 28 33 -6 70 6 84 27 4 5 14 6 23 3 14 -5 15 -3 6
13 -9 16 -8 18 6 13 13 -5 15 -3 9 7 -6 10 -3 12 14 7 17 -4 21 -2 17 9 -7 17
6 18 23 2 10 -11 11 -9 5 7 -6 16 -5 18 7 8 18 -17 48 -18 31 -1 -19 19 -14
33 6 15 10 -10 21 -14 24 -11z m1209 -69 c9 -7 16 -16 17 -22 0 -5 74 -54 164
-107 285 -170 276 -163 283 -211 4 -23 5 -137 3 -254 -3 -198 -4 -213 -23
-228 -26 -20 -402 -240 -437 -256 -25 -11 -37 -6 -170 75 -79 47 -182 112
-228 143 l-85 58 -5 255 c-3 140 -9 262 -13 271 -7 13 7 26 65 62 112 70 391
227 403 227 5 0 17 -6 26 -13z m-3204 -200 c98 -56 206 -121 240 -142 l62 -40
1 -316 0 -315 -87 -49 c-49 -26 -153 -85 -233 -130 -80 -45 -155 -85 -167 -89
-16 -5 -77 24 -255 124 -128 73 -239 136 -245 142 -10 8 -13 85 -13 324 l0
313 118 69 c64 38 149 86 187 107 39 21 92 54 120 72 27 18 60 33 72 33 12 0
102 -46 200 -103z m1512 -653 c190 -101 250 -137 244 -147 -3 -6 -1 -7 4 -4
11 7 120 -49 163 -84 18 -15 12 -13 -21 5 -25 14 -48 26 -50 26 -2 0 -3 -114
-1 -252 2 -139 1 -262 -2 -273 -6 -24 -418 -265 -453 -265 -11 0 -63 24 -114
54 -52 29 -128 73 -169 96 -41 24 -90 53 -108 64 l-33 21 -6 265 c-5 246 -9
295 -20 263 -3 -7 -14 -13 -26 -14 -21 0 -21 -1 -2 -9 17 -7 17 -9 3 -9 -10
-1 -18 -6 -18 -13 0 -9 -3 -9 -12 0 -17 17 -26 15 -31 -5 -3 -11 -5 -6 -6 11
-1 25 -3 27 -18 15 -13 -11 -15 -11 -9 -1 5 9 0 22 -13 36 -20 21 -21 28 -12
72 l10 49 -4 -51 c-4 -34 -1 -55 7 -62 21 -17 74 -18 94 -2 18 14 18 14 5 -2
-17 -22 3 -25 25 -4 10 11 11 15 1 19 -15 5 56 50 158 99 44 21 130 65 190 97
61 33 112 60 114 60 2 1 52 -24 110 -55z m-2588 -41 c33 -20 57 -38 54 -41 -3
-3 -18 4 -33 15 -45 33 -90 54 -97 43 -3 -5 5 -14 17 -21 13 -7 25 -15 28 -19
3 -3 37 -23 75 -44 39 -21 106 -60 150 -87 44 -27 90 -50 103 -52 37 -5 47
-22 35 -59 -11 -33 -11 -33 -12 -5 -1 21 -9 31 -33 43 -18 8 -80 44 -138 80
-58 36 -129 77 -158 91 l-53 25 -87 -50 c-48 -27 -135 -76 -194 -108 l-107
-59 -1 -65 c-1 -36 -5 -74 -10 -85 -11 -25 -12 -15 -10 88 1 51 -3 77 -10 77
-6 0 -8 5 -5 10 3 6 1 10 -4 10 -6 0 -11 5 -11 11 0 6 6 9 13 6 40 -15 57 -17
57 -8 0 5 -12 11 -27 13 -25 3 -22 6 32 35 34 17 126 68 205 112 80 45 149 81
153 81 5 0 36 -16 68 -37z m3839 -168 l0 -95 -134 0 -135 0 -3 95 -3 95 138 0
137 0 0 -95z m-3757 -65 c57 -28 76 -44 111 -94 53 -76 66 -112 66 -191 0 -68
-39 -165 -67 -165 -13 0 -13 2 -2 17 12 14 12 16 -1 11 -8 -2 -17 -18 -20 -33
-3 -16 -8 -28 -12 -27 -5 1 -9 -1 -9 -5 -2 -12 -87 -53 -166 -79 -80 -27 -99
-25 -176 13 -216 108 -254 380 -72 519 108 82 228 94 348 34z m832 -550 c14 0
25 -6 25 -13 0 -24 25 -45 63 -51 35 -7 37 -6 38 21 0 15 7 46 14 68 l14 40
-7 -40 c-10 -65 -8 -100 6 -97 16 3 17 -64 1 -74 -8 -5 -10 1 -7 19 3 15 1 24
-3 21 -5 -3 -9 -12 -9 -20 0 -8 -9 -14 -20 -14 -15 0 -20 7 -21 28 l-2 27 -5
-30 -5 -30 -6 30 c-9 43 -39 46 -43 3 l-3 -33 -85 -8 c-112 -10 -189 -30 -279
-73 -41 -19 -77 -31 -81 -27 -16 19 -67 89 -75 102 -5 9 -4 12 3 8 13 -9 42 2
42 16 0 6 -7 19 -17 29 -20 22 -11 24 12 2 17 -17 65 -12 65 6 0 6 -16 43 -35
83 -20 40 -27 61 -16 47 11 -14 30 -47 43 -75 12 -27 23 -51 24 -53 3 -5 74
31 74 38 0 3 -14 44 -30 89 -17 46 -29 86 -26 88 2 2 18 -37 36 -86 18 -50 34
-91 35 -91 1 0 16 5 34 11 40 14 39 31 -4 154 -6 19 -6 19 8 2 8 -10 21 -47
28 -81 l12 -63 34 8 c19 4 37 10 40 13 3 3 1 31 -6 62 -13 69 -14 84 -2 84 5
0 12 -34 16 -76 l7 -75 37 3 36 3 -3 59 c-2 33 0 89 5 125 8 64 8 62 11 -56
l3 -123 24 0z m3387 111 c49 -24 68 -55 68 -113 0 -35 -23 -82 -49 -100 -16
-11 -19 -24 -18 -66 l2 -52 28 32 c15 18 50 67 78 108 39 56 50 81 46 103 -2
15 0 30 5 33 5 3 32 -10 61 -29 29 -19 95 -57 147 -85 52 -28 104 -58 115 -67
13 -11 8 -10 -15 3 -88 49 -228 122 -253 131 -24 9 -29 8 -36 -12 -11 -29
-215 -330 -235 -346 -12 -11 -18 -6 -35 26 -19 39 -44 57 -91 67 l-25 5 3 -69
c3 -65 1 -72 -29 -114 l-32 -45 -27 19 c-16 11 -31 20 -34 20 -3 0 -6 -21 -7
-47 -1 -106 -11 -135 -54 -164 l-40 -28 -20 24 c-22 25 -206 125 -232 125 -9
0 -22 -8 -29 -17 -17 -23 -18 -2 -1 21 12 17 18 17 53 6 21 -7 71 -30 110 -51
39 -22 74 -39 78 -39 3 0 6 49 6 108 l0 109 -56 28 c-62 32 -94 72 -94 121 0
33 17 53 63 72 39 17 65 15 133 -8 l59 -20 16 21 c15 20 19 21 55 9 21 -7 69
-30 105 -51 36 -22 68 -39 72 -39 4 0 7 34 7 75 0 41 -4 75 -9 75 -14 0 -95
70 -108 94 -20 34 -15 72 13 105 45 54 57 43 50 -46 -4 -43 -3 -83 1 -89 14
-20 77 -54 98 -53 17 1 17 2 3 6 -31 8 -19 23 12 16 49 -9 80 26 80 93 0 29
-5 56 -12 61 -25 19 -150 62 -166 57 -9 -3 -6 1 8 9 27 16 31 16 132 -32z
m-1073 -104 c108 -87 117 -92 144 -74 12 8 36 35 52 61 32 50 45 58 45 24 0
-24 -27 -58 -45 -58 -7 0 -20 -11 -28 -24 -16 -23 -15 -25 24 -50 76 -51 83
-51 173 -5 44 23 128 70 186 105 58 34 113 64 122 66 16 3 18 0 18 -21 0 -6
-46 -33 -102 -61 -56 -28 -145 -75 -199 -105 l-97 -55 -77 47 -78 48 -15 -24
c-9 -13 -40 -53 -69 -90 -29 -36 -53 -69 -53 -72 0 -4 10 -9 23 -13 16 -4 27
1 39 17 9 12 20 19 24 15 4 -4 -3 -16 -16 -26 l-22 -18 73 -45 74 -44 3 -272
2 -272 -52 -31 c-210 -125 -326 -192 -344 -196 -16 -4 -74 24 -206 99 -100 57
-197 111 -214 120 l-31 16 -7 202 c-4 111 -4 205 1 210 4 4 19 -1 33 -12 20
-15 21 -18 5 -13 -11 4 -17 4 -14 0 4 -4 16 -8 27 -11 11 -2 30 -8 41 -14 30
-17 33 -15 70 39 18 27 42 57 52 66 14 12 16 21 9 29 -8 9 -3 14 17 18 16 3
61 17 102 31 93 33 105 32 173 -2 80 -41 120 -72 114 -88 -3 -7 0 -16 6 -20 7
-4 8 -3 4 4 -4 7 -4 12 -1 12 12 0 35 -70 35 -107 0 -21 -9 -57 -20 -81 -11
-23 -15 -40 -11 -37 12 7 41 -5 41 -16 0 -5 -7 -9 -16 -9 -13 0 -14 -3 -4 -15
6 -8 10 -20 7 -27 -4 -9 -6 -8 -6 3 -1 12 -9 14 -43 10 -39 -6 -43 -9 -43 -34
1 -15 -2 -27 -5 -27 -3 0 -6 -9 -7 -21 -2 -26 -23 -89 -30 -89 -5 0 -82 41
-163 88 -25 14 -108 68 -186 119 -78 51 -148 93 -157 93 -9 0 -18 10 -20 23
-4 21 0 -36 8 -118 2 -22 4 -76 5 -120 l0 -80 133 -74 c72 -41 161 -92 196
-113 36 -21 76 -38 91 -38 14 0 105 46 210 108 l185 107 0 254 0 254 -110 63
c-140 80 -213 119 -200 107 20 -19 141 -101 173 -117 19 -10 31 -20 28 -23 -2
-3 -50 24 -106 61 -125 82 -181 111 -189 98 -7 -12 -242 -142 -291 -162 -72
-28 -120 -61 -120 -83 0 -19 2 -19 32 9 l32 29 -29 -36 c-22 -27 -33 -34 -42
-25 -14 14 -26 87 -16 102 5 6 80 54 168 106 276 164 243 149 284 130 20 -10
38 -20 39 -25 2 -4 8 -5 13 -1 5 3 9 0 9 -5 0 -6 7 -11 15 -11 8 0 15 -4 15
-9 0 -4 21 -19 46 -32 l46 -24 40 45 c22 25 54 64 70 88 35 51 41 43 -89 119
-52 31 -82 54 -83 66 0 9 3 17 6 17 4 0 37 -24 73 -53z m-1346 -189 c12 -6 29
-14 37 -18 40 -19 11 -90 -37 -90 -13 0 -22 -4 -19 -9 8 -13 186 -108 217
-116 13 -3 32 -12 41 -19 16 -12 16 -20 -7 -129 -14 -63 -33 -137 -44 -164
-28 -72 -85 -164 -122 -198 l-33 -30 31 37 c41 48 77 111 107 184 26 65 70
259 63 278 -3 7 -54 36 -113 66 -118 58 -194 112 -194 137 0 15 37 83 46 83 2
0 14 -5 27 -12z m-1451 -40 c55 -54 55 -52 -11 -113 -137 -128 -188 -257 -216
-547 -7 -78 18 -190 62 -270 34 -62 40 -57 8 7 -14 26 -25 56 -24 64 0 9 5 3
11 -14 6 -16 28 -59 50 -94 41 -69 49 -89 18 -52 -11 13 -20 19 -20 14 0 -10
39 -50 46 -46 4 3 124 -122 124 -129 0 -4 -17 -25 -38 -48 l-37 -42 -55 58
c-30 33 -58 58 -62 56 -5 -1 -7 1 -6 6 2 4 -16 34 -38 67 -88 129 -128 233
-145 375 -13 112 -6 197 23 300 11 41 21 87 21 103 0 15 4 27 8 27 15 0 43 64
30 68 -19 6 -12 20 7 15 13 -3 25 4 36 22 15 22 15 29 4 43 -11 15 -11 15 2 6
12 -10 29 2 90 66 41 43 78 79 82 79 4 1 17 -9 30 -21z m4474 -85 c-3 -42 -6
-140 -6 -219 l0 -143 -32 -5 c-18 -3 -114 -7 -213 -8 l-180 -3 0 149 0 148
105 37 c58 21 146 56 195 79 50 22 101 41 114 41 24 1 24 0 17 -76z m-3939 0
c3 -7 21 -13 40 -13 23 0 32 4 27 12 -5 7 -3 8 7 2 8 -5 22 -7 31 -6 11 2 18
-5 20 -20 2 -19 13 -26 68 -39 36 -8 58 -18 50 -21 -12 -5 -9 -11 13 -34 24
-25 30 -27 47 -16 12 7 20 8 20 2 0 -5 7 -10 15 -10 12 0 13 -3 3 -19 -18 -30
3 -71 34 -65 13 2 17 2 11 -2 -17 -8 -16 -24 1 -24 19 0 40 -26 26 -35 -16
-10 -12 -34 14 -68 29 -39 36 -78 17 -93 -21 -17 -6 -44 26 -45 25 -2 26 -2 4
-6 -20 -4 -23 -9 -18 -38 4 -23 1 -38 -9 -46 -19 -16 -18 -47 4 -52 13 -4 11
-5 -5 -6 -27 -1 -28 -3 -8 -41 13 -25 13 -30 2 -30 -8 0 -26 -11 -41 -25 -23
-21 -26 -30 -20 -59 5 -28 2 -37 -15 -47 -15 -10 -17 -16 -9 -26 7 -9 7 -13
-1 -13 -7 0 -9 -5 -5 -12 4 -7 3 -8 -5 -4 -6 4 -9 11 -6 16 3 5 1 12 -5 15
-16 10 -40 -14 -37 -38 1 -16 -3 -21 -15 -19 -28 4 -78 -27 -89 -55 -7 -18
-13 -22 -22 -15 -8 7 -24 6 -52 -4 -22 -7 -41 -14 -42 -14 -2 0 -3 -7 -3 -16
0 -13 -6 -15 -27 -9 -83 20 -93 19 -105 -12 l-11 -29 -30 28 c-40 35 -86 46
-103 24 -11 -15 -14 -14 -35 13 -30 38 -91 65 -107 49 -9 -9 -12 -8 -12 6 0
29 -38 74 -69 81 -29 6 -60 50 -40 57 17 6 -2 38 -21 38 -11 0 -22 5 -26 12
-4 7 -3 8 4 4 20 -12 13 16 -13 59 -26 42 -32 75 -15 75 14 0 1 50 -18 72 -13
15 -13 21 2 52 19 40 20 68 5 83 -12 12 8 60 36 83 12 10 15 23 11 45 -6 28
-2 35 29 56 39 27 51 47 36 62 -16 16 7 37 39 37 32 0 55 23 46 45 -3 9 -2 14
3 10 5 -3 11 -2 13 2 2 5 16 19 32 33 16 14 26 20 23 14 -9 -16 17 -36 36 -28
9 3 19 14 22 25 4 10 13 19 21 19 8 0 14 5 14 11 0 5 4 8 9 5 5 -4 12 0 15 6
5 10 7 10 12 1 8 -18 63 -16 70 2 8 19 74 17 81 -2z m658 -147 c41 -82 95
-257 95 -308 0 -19 5 -20 89 -13 87 7 88 7 94 -17 12 -41 8 -98 -5 -96 -7 2
-16 14 -19 28 -6 23 -7 22 -8 -7 -1 -23 4 -33 14 -33 9 0 15 -9 15 -25 0 -14
-5 -25 -11 -25 -5 0 -8 3 -6 8 3 4 -30 7 -73 7 l-78 0 -6 -48 c-10 -73 -13
-77 -49 -66 -55 16 -61 12 -86 -53 -33 -88 -65 -140 -137 -224 -59 -70 -62
-72 -84 -57 l-22 15 44 47 c142 149 207 331 195 546 -7 136 -50 251 -131 357
-39 52 -38 53 34 97 l35 21 27 -32 c15 -17 48 -72 73 -122z m2747 -203 c34
-36 178 -313 178 -342 0 -30 -51 -52 -224 -96 -215 -55 -259 -47 -237 40 15
59 58 276 66 338 7 45 6 47 -18 47 -23 0 -43 21 -31 33 3 2 58 5 122 6 117 1
118 1 144 -26z m-1987 -433 c88 -51 192 -110 232 -132 39 -21 76 -44 81 -51 6
-7 12 -208 16 -497 3 -267 9 -713 12 -992 7 -508 7 -508 28 -509 20 -2 20 -2
-1 -6 l-23 -4 0 -325 c0 -286 2 -325 16 -331 8 -3 21 0 27 6 9 9 11 232 9 894
-2 485 0 1017 4 1182 l7 301 51 34 c28 19 95 63 149 97 l99 63 56 -57 c32 -31
45 -47 31 -35 -14 12 -31 22 -39 22 -19 0 22 -42 74 -76 22 -16 59 -45 82 -66
l41 -39 36 83 c21 46 37 90 37 99 0 9 9 27 20 40 l19 24 1 -27 c0 -15 -4 -29
-9 -33 -12 -7 -57 -104 -73 -156 -11 -37 -10 -41 18 -72 l29 -32 -32 29 -32
28 -16 -38 c-44 -106 -68 -193 -69 -251 -1 -33 -4 -59 -8 -56 -5 2 -8 -11 -8
-29 0 -25 3 -29 10 -18 8 12 10 10 10 -8 0 -13 -4 -20 -10 -17 -5 3 -10 1 -10
-4 0 -6 6 -11 13 -11 9 0 9 -2 -1 -9 -7 -4 -13 -23 -13 -42 0 -19 -2 -58 -5
-86 -5 -47 -4 -53 13 -53 11 0 14 -3 7 -8 -11 -7 -21 -75 -25 -167 l-2 -40 -7
45 c-5 33 -8 12 -11 -82 -2 -75 0 -124 5 -120 6 3 6 -3 1 -14 -4 -10 -10 -56
-12 -101 -3 -63 -1 -83 9 -83 10 0 10 -2 1 -8 -9 -6 -13 -93 -15 -342 -3 -413
-7 -522 -19 -515 -5 4 -9 26 -9 51 0 46 -13 56 -39 32 -7 -7 -12 -8 -11 -3 6
31 -1 45 -26 45 -14 0 -23 -4 -19 -10 4 -6 10 -8 15 -5 5 3 11 1 15 -5 3 -5
-3 -10 -14 -10 -12 0 -21 -4 -21 -10 0 -5 6 -10 14 -10 8 0 18 -4 21 -10 4 -6
-10 -9 -34 -8 -23 1 -41 5 -41 10 0 4 -5 8 -11 8 -5 0 -7 -4 -4 -10 3 -5 1
-10 -4 -10 -6 0 -11 5 -11 10 0 6 -7 10 -16 10 -13 0 -15 -7 -11 -35 3 -19 2
-35 -4 -35 -5 0 -9 17 -9 38 0 34 -3 38 -25 37 -31 -2 -46 -15 -17 -15 12 0
22 -6 22 -14 0 -8 3 -21 6 -30 3 -9 1 -16 -5 -16 -6 0 -11 9 -11 20 0 11 -4
20 -10 20 -5 0 -10 -11 -10 -25 0 -14 -4 -25 -10 -25 -5 0 -10 14 -10 30 0 17
-4 30 -10 30 -5 0 -10 5 -10 11 0 5 5 7 10 4 6 -3 10 -1 10 4 0 6 -18 11 -39
11 l-39 0 -7 -146 c-5 -95 -4 -149 3 -156 5 -5 57 -16 113 -23 134 -16 272
-47 281 -61 4 -7 19 -14 32 -18 13 -3 26 -13 30 -21 6 -17 -20 -65 -36 -65 -5
0 -15 -6 -22 -13 -8 -7 -69 -26 -137 -41 -68 -16 -128 -32 -134 -36 -5 -4 -42
-10 -81 -12 -62 -5 -74 -3 -88 14 -20 23 -37 19 -52 -11 l-12 -23 -14 28 c-10
22 -21 29 -43 30 -39 1 -55 -5 -55 -21 0 -9 -11 -12 -36 -10 -22 2 -37 -1 -40
-10 -4 -9 -17 -11 -44 -8 -32 5 -40 2 -50 -16 -9 -18 -14 -20 -26 -10 -11 9
-18 8 -32 -5 -10 -9 -26 -16 -34 -16 -11 0 -18 -16 -24 -57 -6 -44 -9 -51 -12
-28 -8 67 -20 39 -32 -77 -21 -205 -21 -208 -35 -208 -7 0 -20 -12 -30 -26
-10 -15 -22 -23 -31 -20 -8 3 -14 0 -14 -7 0 -8 -15 -21 -32 -31 -18 -9 -46
-24 -61 -32 -15 -9 -38 -17 -50 -18 -13 -1 -28 -6 -35 -10 -7 -4 -17 -4 -22
-1 -6 4 -17 2 -25 -5 -16 -13 -28 5 -40 59 -4 18 -15 41 -26 52 -16 16 -19 17
-27 3 -5 -9 -13 -14 -18 -12 -5 1 -14 -19 -21 -46 -14 -55 -21 -66 -32 -48 -5
8 -13 2 -25 -18 -10 -17 -22 -27 -28 -24 -7 5 -9 1 -5 -9 3 -10 2 -17 -3 -17
-6 0 -10 -7 -10 -15 0 -12 -18 -15 -103 -15 -128 0 -349 -11 -343 -18 7 -6
-22 -33 -38 -36 -8 -1 -21 -8 -30 -15 -9 -7 -16 -10 -16 -6 0 5 -8 -2 -19 -13
-10 -12 -29 -22 -41 -22 -34 0 -19 -9 31 -19 42 -9 41 -9 -31 -12 -65 -2 -69
-3 -30 -8 32 -4 11 -7 -75 -11 -66 -4 726 -6 1760 -6 1771 1 1882 2 1912 18
61 34 60 52 -18 252 -40 105 -46 142 -9 59 53 -119 100 -246 100 -272 0 -36
-26 -54 -98 -70 -39 -8 -800 -11 -2830 -12 -1527 0 -3157 -4 -3622 -8 -488 -4
-859 -3 -879 2 -40 10 -81 52 -81 82 0 12 11 43 25 68 20 38 106 281 248 697
163 475 196 565 197 535 0 -5 -95 -292 -210 -637 -160 -477 -208 -632 -201
-646 11 -20 38 -35 96 -54 31 -10 364 -13 1565 -14 839 -1 1507 2 1485 5 l-40
7 35 6 c28 4 24 5 -21 6 -39 1 -56 6 -55 15 0 6 -3 13 -8 14 -5 1 -13 7 -17
15 -7 10 -9 10 -9 -2 -1 -8 -5 -5 -11 8 -5 13 -13 21 -18 17 -5 -3 -12 -1 -16
5 -4 6 -9 8 -13 6 -11 -7 -77 29 -75 41 1 6 -68 13 -197 17 -109 4 -211 11
-227 16 -21 6 -23 9 -8 10 15 1 16 3 5 7 -21 9 -36 26 -44 51 -4 12 -16 27
-27 32 -10 6 -19 19 -19 30 0 22 -44 70 -65 70 -8 0 -15 9 -15 20 0 11 -4 20
-10 20 -5 0 -10 6 -10 13 0 6 -14 25 -30 41 -17 16 -30 34 -30 40 0 6 -14 24
-30 40 -16 15 -36 43 -45 62 -9 19 -20 32 -25 29 -5 -3 -16 8 -25 25 -10 20
-23 30 -38 30 -12 0 -45 11 -72 24 -28 12 -75 29 -105 36 -30 7 -80 24 -110
37 -64 28 -287 103 -307 103 -8 0 -16 -7 -20 -16 -5 -13 -11 -10 -34 15 -33
37 -56 40 -68 9 l-8 -23 -7 23 c-4 12 -15 22 -26 22 -10 0 -25 7 -33 15 -8 8
-17 11 -21 8 -3 -4 -6 2 -6 13 0 14 -2 16 -9 5 -12 -18 -25 4 -16 27 5 14 7
14 15 2 8 -13 10 -12 10 3 0 10 5 15 10 12 6 -3 14 4 19 17 9 21 10 21 11 3 1
-11 4 -14 7 -7 2 6 9 10 14 6 19 -11 29 51 28 174 0 103 -13 238 -18 197 -1
-5 -6 -3 -11 5 -7 11 -10 5 -11 -25 -1 -34 -3 -32 -9 19 -4 32 -12 61 -18 65
-5 3 -12 15 -15 26 -2 11 -6 0 -7 -25 l-3 -45 -7 50 -7 50 1 -62 c1 -35 -2
-57 -6 -50 -4 6 -9 37 -10 67 l-1 55 -7 -60 c-6 -53 -7 -55 -10 -20 -2 39 -3
39 -10 10 l-7 -30 -4 35 c-3 30 -8 36 -34 39 l-30 4 30 7 c28 7 26 8 -15 10
l-45 3 35 7 35 7 -45 2 c-25 1 -52 6 -60 12 -11 7 -6 9 20 6 19 -2 46 0 60 4
18 5 9 7 -32 8 -51 1 -58 4 -58 21 0 13 -5 18 -15 14 -15 -6 -18 4 -16 56 1
23 0 23 -8 5 -7 -14 -10 5 -11 65 -1 47 -4 137 -6 202 -3 75 -1 119 6 123 6 4
7 13 2 23 -5 9 -10 58 -11 109 -2 92 -2 92 29 120 37 32 180 225 180 242 0 6
3 11 6 11 8 0 208 -181 212 -192 2 -4 -1 -8 -6 -8 -5 0 -19 -22 -31 -49 -21
-49 -21 -60 -21 -653 0 -332 3 -613 6 -625 7 -25 35 -31 52 -10 7 8 11 239 14
674 1 363 6 659 9 657 12 -7 22 -299 28 -799 l6 -510 25 1 c39 1 184 47 193
61 4 7 13 10 20 7 7 -2 23 5 36 17 12 12 34 24 49 28 14 4 28 14 30 22 5 12 3
12 -12 0 -19 -16 -31 -9 -23 12 4 10 15 13 32 9 24 -4 26 -2 20 17 -6 18 -2
21 27 22 18 1 38 1 45 0 6 -1 14 3 17 8 9 14 -33 24 -48 12 -15 -13 -49 -4
-40 10 3 5 -4 9 -15 9 -13 0 -21 -7 -21 -17 -1 -16 -2 -16 -13 -2 -7 9 -19 18
-27 22 -13 4 -12 6 1 6 12 1 18 13 21 41 l4 40 -43 0 -43 0 0 -52 c0 -28 -2
-49 -5 -46 -3 3 -6 39 -6 81 l-1 77 -31 0 -32 0 3 55 4 55 -44 2 -43 1 40 6
c27 4 41 12 43 24 2 14 -5 17 -40 19 -42 1 -43 1 -6 5 38 4 59 29 33 39 -9 4
-29 4 -45 2 l-30 -5 2 51 c1 50 2 51 5 9 4 -42 5 -43 39 -43 28 0 34 4 34 21
0 14 -6 19 -17 17 -10 -1 -18 2 -19 7 0 6 7 9 18 7 13 -2 18 3 18 17 0 18 -6
21 -40 21 l-40 0 -1 118 c-1 163 2 296 7 301 2 2 4 -21 4 -52 0 -56 0 -57 29
-57 30 0 50 15 30 22 -7 2 -13 18 -13 36 -1 24 3 32 16 32 14 0 16 13 17 97 1
53 3 99 6 101 3 3 5 -30 5 -73 0 -43 3 -76 6 -72 3 3 5 56 5 118 -1 90 -5 114
-17 124 -13 9 -9 10 20 7 34 -4 36 -3 36 24 0 16 5 36 10 44 6 10 8 3 3 -22
l-6 -38 51 0 c45 0 50 2 54 25 6 29 -22 48 -181 131 -53 28 -118 71 -148 99
-45 43 -53 56 -53 87 0 20 5 40 10 43 6 4 10 -13 10 -44 0 -47 3 -52 46 -89
26 -22 109 -72 184 -113 76 -40 149 -81 162 -92 12 -10 17 -15 9 -11 -10 5
-12 3 -7 -5 6 -9 12 -9 24 2 10 8 87 56 172 107 85 51 170 103 187 116 l33 25
3 187 2 187 3 -190 2 -191 -77 -51 c-43 -28 -126 -80 -185 -116 -59 -36 -119
-75 -134 -86 l-27 -21 42 0 c32 0 41 4 42 18 0 13 2 12 9 -5 6 -15 18 -23 34
-23 21 0 25 -5 29 -37 3 -30 4 -27 6 17 1 41 4 51 11 38 6 -10 18 -14 31 -11
19 5 20 4 10 -15 -6 -11 -11 -41 -11 -66 0 -37 4 -46 18 -47 16 -1 16 -2 -1
-6 -12 -3 -15 -11 -11 -29 3 -13 2 -24 -3 -24 -6 0 -9 -15 -8 -32 1 -18 2
-270 3 -560 1 -344 5 -528 12 -528 6 0 10 8 11 18 0 10 3 12 6 5 8 -22 50 -15
67 12 14 21 16 67 16 355 l0 330 25 12 c33 15 35 57 3 59 -23 2 -23 2 0 6 l24
5 -5 141 c-3 78 -3 127 0 110 2 -19 10 -33 18 -33 10 0 12 -11 8 -42 -5 -36
-4 -40 11 -35 14 6 15 1 10 -33 -4 -27 -3 -40 5 -40 7 0 12 25 13 68 l2 67 6
-70 c6 -62 7 -65 10 -25 l3 45 7 -45 7 -45 3 45 3 45 7 -45 c7 -45 7 -44 8 18
2 48 5 62 17 62 8 0 15 -5 15 -11 0 -5 -4 -7 -10 -4 -6 4 -9 -15 -8 -52 1 -57
2 -57 7 -13 l5 45 6 -45 c7 -44 7 -44 8 17 2 52 5 61 18 56 13 -5 13 -7 2 -14
-10 -7 -10 -9 0 -9 8 0 12 -17 13 -47 1 -27 4 -39 7 -28 l5 20 8 -20 c4 -11 6
39 4 110 l-4 130 10 -120 c10 -139 12 -145 37 -145 14 0 21 -9 26 -30 10 -50
22 -34 22 29 -1 37 -5 57 -11 53 -6 -3 -5 0 1 9 14 18 15 58 3 80 -7 14 -6 17
4 13 11 -4 14 4 12 34 -1 22 -5 44 -9 51 -4 6 -2 11 5 11 9 0 9 3 0 14 -7 8
-8 17 -3 20 10 6 9 66 -1 84 -5 7 -4 12 2 12 7 0 11 46 11 133 l0 132 48 13
c26 7 54 14 62 15 11 3 16 22 20 68 l5 63 43 9 42 8 0 234 c0 160 -3 236 -11
241 -8 5 -8 8 0 14 7 4 12 35 13 71 1 65 1 65 31 67 48 4 67 -6 67 -37 0 -36
-17 -53 -42 -40 -10 5 -23 7 -28 4 -10 -6 -7 -324 6 -561 l6 -122 55 -21 c30
-12 58 -21 62 -21 13 0 22 173 9 181 -17 10 27 49 117 101 112 66 146 87 263
161 56 36 102 64 102 62 0 -3 33 17 73 43 125 82 125 82 208 31 39 -24 91 -56
117 -71 26 -15 139 -90 252 -165 l205 -138 0 -335 0 -335 -2 331 -3 332 -198
129 c-181 120 -317 199 -367 216 -25 8 -17 2 88 -61 44 -26 89 -54 102 -62 13
-8 64 -41 114 -73 50 -33 91 -61 91 -63 0 -3 -6 -2 -12 2 -7 5 -83 51 -168
104 -85 53 -182 112 -215 130 l-60 33 -145 -77 c-80 -42 -135 -74 -122 -71 39
11 24 -4 -25 -25 -58 -25 -76 -34 -226 -120 l-117 -68 43 -25 c24 -14 49 -32
56 -41 9 -10 13 -83 14 -257 l2 -242 63 -34 62 -35 0 -86 c0 -47 3 -82 6 -79
6 6 37 -7 58 -25 6 -4 32 -24 58 -43 63 -47 124 -150 132 -224 3 -29 7 -56 10
-58 5 -5 48 18 57 31 4 5 11 6 17 2 5 -3 12 7 15 23 4 16 12 35 20 42 9 9 11
27 7 61 -6 48 3 66 15 27 9 -28 30 -17 28 15 -1 17 3 26 14 26 24 0 73 40 73
60 0 10 5 22 10 25 6 3 10 16 11 28 0 21 1 21 9 2 8 -19 9 -19 9 2 1 12 -5 24
-11 26 -8 3 -6 6 5 6 9 1 18 -5 18 -11 1 -7 5 1 8 17 9 36 2 54 -11 31 -13
-23 -27 -20 -20 6 4 18 2 20 -16 16 -12 -4 -20 -3 -17 2 6 10 -43 20 -114 22
-43 1 -47 2 -18 5 20 2 37 7 37 11 0 4 11 7 24 7 13 0 22 -3 19 -7 -2 -5 11
-8 29 -7 25 1 28 3 13 7 -29 10 -32 35 -3 27 19 -6 21 -5 10 6 -18 19 -153 20
-217 2 -27 -8 -62 -23 -77 -34 -16 -11 -28 -15 -28 -10 0 10 97 61 117 61 8 0
16 6 19 14 6 16 -76 153 -120 201 -30 32 -35 34 -67 25 -19 -6 -47 -9 -64 -9
-24 2 -21 4 18 12 73 16 62 37 -21 37 -46 0 -75 5 -91 16 -50 35 -78 163 -54
245 8 27 18 49 22 49 18 0 20 -15 6 -37 -15 -22 -13 -22 39 8 76 42 128 43
192 0 31 -20 50 -27 54 -20 4 6 5 -31 3 -83 -6 -149 -8 -167 -21 -180 -19 -19
-14 -37 29 -101 23 -33 54 -83 69 -111 26 -45 32 -51 58 -48 16 2 58 -2 93 -8
35 -7 69 -13 76 -14 7 -1 16 -5 19 -9 11 -11 53 33 47 49 -3 8 -10 14 -15 14
-6 0 -7 -8 -4 -17 6 -16 6 -16 -12 0 -10 9 -26 17 -35 17 -10 0 -17 8 -17 20
0 12 -7 20 -17 20 -12 0 -14 -3 -6 -8 8 -5 3 -11 -13 -19 -22 -10 -24 -9 -20
13 3 13 0 24 -5 24 -9 0 -13 -14 -10 -37 1 -7 -3 -13 -9 -13 -5 0 -9 6 -8 13
2 6 -4 11 -13 11 -11 -1 -15 6 -12 25 3 23 2 24 -6 6 -7 -15 -10 -4 -10 43 -1
44 -4 61 -12 56 -8 -4 -9 0 -4 15 7 23 5 24 -19 15 -9 -3 -16 -13 -16 -21 0
-8 -4 -11 -10 -8 -9 6 -15 -37 -11 -72 1 -7 -3 -13 -9 -13 -5 0 -10 18 -10 39
0 45 24 77 78 105 19 10 31 20 28 23 -9 10 37 40 79 52 55 15 65 14 65 -9 0
-13 7 -19 23 -18 37 1 48 -2 42 -11 -3 -5 0 -13 6 -17 7 -4 9 -3 6 3 -4 6 0
13 8 17 12 4 11 11 -8 39 -12 19 -34 55 -49 81 -30 50 -41 54 -93 32 -33 -14
-33 -14 -59 24 -31 47 -64 60 -83 34 -12 -17 -13 -17 -13 4 0 12 5 22 11 22 5
0 7 5 3 12 -4 7 -9 24 -10 38 -2 14 -6 44 -9 67 -6 41 -6 42 27 45 26 2 36 10
48 35 18 39 37 47 74 33 15 -5 37 -10 49 -10 13 0 26 -9 32 -22 7 -16 18 -22
33 -21 14 2 21 -1 17 -7 -4 -6 3 -25 14 -44 26 -42 26 -58 1 -81 -11 -10 -20
-26 -20 -36 0 -11 -10 -21 -25 -25 -31 -8 -31 -13 -1 -72 32 -60 75 -113 76
-91 0 15 50 70 50 55 0 -4 8 -2 18 3 31 17 75 -1 85 -35 13 -46 16 -84 5 -84
-6 0 -8 -7 -5 -14 4 -9 1 -13 -6 -11 -16 6 -55 -27 -66 -57 -9 -21 -10 -22
-10 -2 -1 26 -10 36 -25 27 -21 -14 -38 -12 -32 4 4 10 2 13 -8 10 -8 -3 -17
-3 -19 1 -2 4 -2 0 1 -8 3 -8 4 -25 3 -38 -1 -27 20 -72 43 -91 13 -11 19 -11
33 0 15 12 16 12 11 -2 -6 -15 -3 -16 32 -2 48 19 120 10 152 -19 l23 -20 -25
14 c-55 32 -130 29 -165 -6 -16 -16 -6 -29 30 -40 11 -3 5 -4 -13 -2 -25 2
-32 -1 -27 -11 3 -8 5 -19 5 -24 0 -5 4 -9 10 -9 5 0 7 8 4 18 -5 13 -4 14 4
3 5 -7 16 -18 23 -23 11 -8 10 -9 -4 -4 -25 8 -31 -15 -18 -75 6 -29 9 -54 7
-56 -2 -3 -9 22 -15 54 -17 88 -31 133 -41 133 -5 0 -21 -11 -35 -24 -25 -24
-26 -26 -16 -82 6 -32 11 -62 10 -68 -1 -11 -29 89 -31 111 -1 7 -5 10 -11 6
-5 -3 -7 -36 -4 -73 3 -59 2 -67 -12 -62 -13 5 -14 3 -5 -9 7 -8 11 -40 9 -76
-3 -45 0 -65 11 -74 12 -10 16 -8 21 9 3 12 10 19 15 16 5 -3 33 16 61 43 29
26 66 59 82 72 28 23 226 121 245 121 6 0 10 -13 10 -29 0 -17 4 -32 9 -35 11
-7 11 -95 0 -102 -12 -7 -12 -624 0 -624 6 0 11 -15 13 -32 3 -30 5 -29 18 22
11 44 14 177 17 639 3 461 6 588 16 600 9 11 13 45 12 111 -2 100 7 89 19 -22
l7 -66 51 23 c28 13 54 29 58 35 4 7 11 12 16 13 14 3 15 290 1 299 -9 5 -9
10 1 20 6 6 12 30 13 53 1 22 5 51 10 65 7 21 8 19 5 -12 -5 -45 7 -61 83
-112 52 -35 61 -48 19 -25 -18 10 -20 9 -14 -7 6 -18 5 -18 -9 0 -8 10 -12 24
-8 29 4 6 0 8 -11 4 -11 -5 -15 -3 -10 5 5 8 2 9 -9 5 -9 -3 -16 -3 -16 1 3
16 -2 23 -11 17 -6 -4 -6 -15 0 -30 7 -20 6 -25 -5 -25 -13 0 -15 -25 -15
-152 l1 -153 60 -43 c34 -24 67 -41 75 -38 10 4 15 26 16 78 l2 73 3 -62 c2
-35 6 -63 9 -63 3 0 33 14 67 31 34 18 79 40 100 51 20 10 38 26 38 36 1 15 2
15 6 1 3 -11 11 -15 24 -12 15 4 19 15 21 57 l2 51 3 -53 c3 -37 8 -52 16 -49
14 5 39 -18 30 -27 -6 -6 12 -10 30 -7 4 0 7 -4 7 -9 0 -6 5 -10 12 -10 8 0
10 38 5 143 -3 78 -2 153 3 167 l8 25 1 -27 c1 -16 6 -28 11 -28 6 0 10 -5 10
-11 0 -5 -4 -8 -9 -5 -6 4 -10 -53 -10 -136 l-1 -143 63 -38 c34 -21 83 -48
109 -60 l48 -22 -2 -115 -2 -115 -3 107 c-3 100 -5 107 -26 114 -12 4 -79 38
-149 75 -69 38 -129 69 -132 69 -3 0 -5 -33 -4 -72 l1 -73 7 65 c4 36 7 58 8
49 2 -13 75 -51 102 -54 3 0 20 -6 38 -14 l32 -13 -2 -567 -3 -566 -2 561 c-3
551 -4 562 -23 567 -20 5 -20 -1 -20 -735 0 -654 2 -739 15 -734 10 3 15 -1
16 -12 1 -9 5 -1 9 18 6 31 8 32 9 8 1 -31 19 -47 32 -27 7 12 9 11 11 -1 2
-8 5 318 8 725 l5 740 3 -750 c2 -412 6 -744 9 -738 3 9 10 10 24 3 14 -8 19
-7 19 2 0 9 3 9 10 -2 8 -12 10 -10 11 10 1 21 2 22 6 5 7 -27 17 -32 57 -27
33 4 35 7 42 49 4 25 4 624 2 1332 -5 1240 -6 1286 -24 1299 -18 13 -75 46
-339 197 -66 37 -131 68 -145 68 -34 0 -472 -244 -500 -278 -11 -13 -14 -71
-14 -248 0 -144 -3 -206 -7 -162 -11 118 -9 357 4 395 10 30 30 45 142 112 72
42 141 83 155 90 13 7 63 35 110 61 64 36 92 47 115 43 17 -2 103 -46 190 -96z
m-2643 -59 c40 -31 74 -68 89 -96 13 -25 28 -45 32 -45 5 0 -3 20 -17 45 -15
25 -25 45 -22 45 8 0 66 -83 66 -94 0 -8 -99 -12 -305 -13 l-305 -2 1 92 c0
51 3 86 6 80 2 -7 11 -13 19 -13 8 0 14 -4 14 -10 0 -5 7 -10 15 -10 8 0 15 5
15 10 0 6 5 10 10 10 6 0 10 -8 10 -18 0 -15 6 -18 30 -14 19 3 30 10 30 21 1
13 3 13 15 -3 12 -16 15 -17 15 -4 0 17 24 31 34 21 3 -4 6 -14 6 -23 0 -13 6
-16 25 -12 20 3 25 10 25 32 0 27 1 28 32 19 18 -5 34 -9 35 -9 2 0 3 13 3 29
0 28 2 29 29 21 16 -4 58 -31 93 -59z m-1143 -124 c69 -30 138 -21 191 27 22
20 45 34 50 31 5 -3 14 -22 21 -42 10 -32 9 -38 -7 -50 -10 -7 -26 -11 -36 -7
-11 3 -18 0 -18 -7 0 -10 -3 -10 -12 -1 -7 7 -38 12 -71 12 -66 0 -147 18
-147 32 0 5 -4 6 -10 3 -12 -8 -100 73 -100 92 0 9 19 -2 48 -28 26 -23 67
-51 91 -62z m5213 31 c9 -1 16 -7 15 -13 -1 -5 4 -9 11 -7 8 1 11 -2 7 -8 -4
-6 -2 -16 3 -23 6 -7 11 -21 12 -32 6 -53 -2 -76 -35 -110 -28 -27 -44 -35
-73 -35 -120 0 -178 153 -82 218 35 24 35 24 142 10z m-1619 -28 c19 -11 41
-18 49 -15 9 4 23 -1 32 -10 19 -19 21 -35 5 -35 -8 0 -10 -15 -5 -47 6 -45 5
-47 -47 -100 -74 -73 -105 -72 -170 6 -10 12 -23 19 -29 15 -7 -5 -9 -1 -5 12
18 59 19 64 8 64 -6 0 -11 16 -11 35 0 32 2 35 30 35 20 0 33 7 41 23 23 43
50 48 102 17z m-3889 -102 c9 -32 34 -78 55 -105 40 -51 149 -156 172 -167 8
-3 -12 -4 -43 -2 -115 9 -237 109 -277 228 -32 96 -29 113 22 131 40 13 42 13
48 -7 4 -12 14 -47 23 -78z m1494 -98 c2 -25 -2 -30 -25 -35 -16 -3 -66 -25
-113 -50 l-85 -44 -3 -50 c-2 -28 1 -51 6 -51 5 0 26 14 47 30 21 17 41 30 44
30 9 0 -51 -49 -81 -65 -16 -9 -28 -20 -28 -25 0 -5 -7 -7 -15 -4 -8 4 -23 0
-32 -7 -15 -13 -15 -12 1 12 20 31 9 75 -21 82 -17 4 -16 5 2 12 49 22 174
107 218 149 56 54 82 59 85 16z m1010 -51 c65 -10 100 -10 179 1 136 18 147
18 151 -1 7 -37 -228 -60 -363 -35 -109 21 -263 87 -224 97 15 3 53 -5 100
-22 42 -15 113 -33 157 -40z m1652 46 c18 -1 26 -8 28 -26 2 -13 18 -41 34
-62 23 -29 28 -41 19 -50 -16 -16 -14 -47 4 -53 8 -4 15 -10 15 -15 0 -5 -7
-9 -15 -9 -8 0 -15 -9 -15 -19 0 -20 -32 -39 -38 -22 -6 17 -66 -8 -95 -39
l-28 -30 -29 20 c-16 12 -32 25 -36 31 -4 6 -16 4 -32 -7 -27 -17 -27 -17 -9
3 28 33 14 65 -41 90 -50 24 -48 29 5 14 31 -9 32 -9 27 18 -9 43 29 111 62
111 15 0 36 12 52 29 19 19 33 27 47 23 11 -3 31 -6 45 -7z m-355 -200 c22
-14 47 -25 56 -25 18 0 29 -28 29 -72 0 -16 3 -28 8 -28 4 0 6 -19 4 -41 -3
-24 -7 -36 -12 -29 -11 18 -45 4 -74 -30 l-24 -29 -54 17 c-41 13 -54 22 -56
40 -2 12 -8 20 -13 17 -5 -4 -9 -2 -9 4 0 5 5 11 11 13 7 2 7 12 0 31 -6 16
-11 44 -11 63 0 31 4 35 31 41 19 3 35 15 41 29 14 30 23 30 73 -1z m-3837
-85 c25 -11 54 -17 67 -14 12 3 26 1 29 -4 3 -5 -5 -13 -19 -16 -18 -5 -25
-13 -25 -30 0 -14 -3 -31 -6 -39 -3 -8 2 -17 12 -21 14 -5 15 -4 4 9 -8 9 -8
15 -2 15 26 0 42 -45 42 -115 0 -78 -5 -89 -38 -100 l-24 -7 21 21 c12 12 21
34 21 52 0 26 -3 31 -20 26 -13 -3 -20 0 -20 9 0 8 10 14 25 14 29 0 35 29 10
50 -30 25 -45 -5 -45 -89 -1 -59 -3 -72 -11 -57 -8 13 -8 39 0 92 18 124 16
138 -26 173 -44 36 -60 40 -39 9 16 -23 20 -111 8 -155 -12 -40 -29 -10 -34
59 -4 72 -23 110 -32 67 -3 -13 -8 -55 -11 -93 -4 -37 -10 -64 -14 -60 -8 10
-31 129 -31 162 0 16 9 24 33 31 17 5 25 10 17 10 -8 0 -35 -6 -60 -13 -25 -8
-37 -15 -27 -15 14 -1 17 -11 17 -66 0 -36 -2 -65 -6 -65 -3 0 -10 14 -15 30
-6 17 -14 30 -18 30 -4 0 -5 16 -3 36 4 35 3 37 -19 31 -13 -4 -30 -7 -36 -7
-10 0 -14 -29 -15 -107 l-2 -108 -3 104 c-2 58 1 109 6 114 11 11 185 55 221
56 14 0 45 -8 68 -19z m1011 -39 c11 -7 18 -23 19 -45 1 -30 -3 -37 -23 -42
-14 -3 -25 -11 -25 -16 0 -5 6 -8 12 -6 18 6 45 -22 53 -54 4 -15 11 -78 15
-140 8 -110 8 -109 7 59 -1 94 1 166 5 160 3 -7 5 -86 3 -177 -3 -210 -3 -210
-16 -210 -5 0 -7 6 -3 12 5 7 -5 3 -20 -10 -30 -23 -109 -31 -121 -12 -4 6
-10 8 -15 5 -5 -3 -18 7 -29 21 -12 15 -23 25 -26 22 -3 -2 11 -20 31 -39 30
-29 42 -34 85 -34 27 0 49 -3 49 -6 0 -4 7 -10 16 -13 15 -6 15 -4 3 11 -11
15 -10 15 7 -1 13 -13 15 -20 7 -23 -7 -3 -13 -12 -13 -20 0 -12 -3 -13 -14
-4 -10 9 -15 8 -20 -4 -7 -20 -23 -19 -29 3 -4 13 -5 11 -6 -5 -1 -22 -31 -34
-31 -13 0 6 -5 10 -10 10 -6 0 -9 -5 -8 -11 2 -6 -7 -15 -19 -20 -27 -10 -30
-1 -5 17 15 12 11 14 -30 15 -46 1 -62 3 -73 9 -3 1 -8 3 -12 4 -34 8 -52 20
-56 36 -3 11 -1 18 3 15 5 -3 10 -2 12 2 5 13 91 79 112 86 17 7 18 15 13 80
-3 43 -2 62 3 47 4 -14 8 -51 9 -82 1 -52 4 -59 29 -72 15 -7 45 -17 67 -20
35 -6 44 -4 64 18 23 24 23 28 16 151 l-7 127 -28 -4 c-20 -3 -27 -1 -23 9 3
8 -2 13 -12 13 -13 0 -16 6 -11 23 4 17 0 25 -17 32 -36 16 -32 39 8 54 20 7
38 11 39 9 2 -1 8 -12 14 -23 10 -18 11 -16 9 12 -2 27 -5 32 -22 28 -11 -3
-14 -2 -6 1 11 5 11 8 0 15 -19 12 -2 11 20 0z m-231 -152 c11 0 12 -2 5 -6
-15 -6 -17 -43 -3 -43 12 0 9 -22 -5 -32 -6 -5 -3 -8 6 -8 28 0 48 -110 24
-130 -8 -7 -15 -18 -15 -25 0 -8 -11 -22 -25 -33 -13 -11 -23 -21 -22 -23 1
-2 -2 1 -8 7 -5 6 -23 15 -40 21 -60 20 -92 137 -53 195 10 15 15 34 12 45 -6
16 -5 16 10 -2 17 -20 17 -20 11 3 -5 18 -2 25 14 29 11 3 19 9 16 13 -3 5 4
6 15 3 11 -3 17 -9 14 -14 -3 -5 -10 -7 -15 -4 -5 4 -9 1 -9 -5 0 -7 -7 -9
-17 -5 -14 5 -15 4 -6 -6 15 -15 62 13 64 39 1 16 2 16 6 0 2 -10 12 -18 21
-19z m-1280 -165 c12 -14 22 -36 22 -48 0 -26 -31 -71 -60 -86 -27 -14 -78 7
-95 41 -22 42 -18 67 15 101 25 25 35 29 63 23 17 -4 42 -18 55 -31z m6120
-191 l29 -17 -14 -42 c-8 -24 -21 -48 -29 -55 -12 -10 -13 -9 -7 6 6 18 5 18
-17 2 -35 -24 -45 -21 -69 19 -26 44 -26 52 1 81 26 27 65 30 106 6z m-199
-159 c39 -49 20 -114 -34 -120 -46 -5 -67 12 -60 47 4 19 3 29 -5 29 -7 0 -10
7 -6 15 7 18 -5 20 -22 3 -9 -9 -12 -9 -12 0 0 24 44 52 81 52 29 0 42 -6 58
-26z m-5436 -67 c25 -17 28 -24 25 -65 -3 -40 -8 -49 -37 -69 -51 -34 -117 -7
-133 55 -11 39 3 67 43 91 34 21 60 18 102 -12z m-752 -1653 c-25 -74 -74
-217 -228 -664 -8 -25 -24 -62 -35 -83 -19 -38 -31 -157 -16 -157 17 0 7 -20
-9 -21 -12 -1 -10 -4 7 -9 l25 -8 -25 -8 -25 -8 25 -7 c15 -4 -11 -7 -60 -7
-66 1 -76 2 -45 8 49 9 38 12 -35 12 -68 -1 -73 -3 -35 -11 19 -5 -3 -8 -65
-9 -52 -1 -110 -6 -129 -12 -43 -12 -36 -6 66 64 53 35 89 53 100 50 14 -5 15
-4 4 4 -15 11 -6 18 29 20 14 1 45 6 70 11 l45 9 -43 1 c-24 1 -52 -4 -63 -9
-10 -6 -19 -8 -19 -6 0 3 10 11 22 17 21 11 36 15 81 18 14 1 16 5 7 20 -14
26 -13 36 3 23 7 -5 21 -6 32 -1 19 7 17 10 -15 13 -10 1 -14 9 -12 24 2 12
-3 28 -10 35 -18 18 -66 27 -73 13 -2 -6 -2 0 1 13 4 16 3 21 -5 17 -7 -4 -11
1 -11 13 0 12 -2 21 -4 21 -2 0 -12 3 -21 6 -15 6 -15 4 -4 -14 15 -24 5 -42
-13 -24 -7 7 -17 12 -22 12 -6 0 0 -7 12 -16 17 -12 21 -21 16 -37 -10 -32
-37 -66 -52 -67 -7 0 -10 -5 -7 -10 12 -19 -99 -116 -190 -166 -90 -51 -210
-94 -259 -94 -28 0 -146 36 -159 49 -4 4 4 29 19 55 l26 47 25 -26 c14 -14 43
-30 64 -37 76 -22 167 30 139 81 -13 25 -91 67 -144 76 -29 6 -36 11 -30 24
15 36 16 61 3 61 -19 -1 -49 -25 -49 -39 0 -6 -11 -43 -25 -82 -13 -40 -22
-77 -18 -83 3 -6 3 -8 -2 -4 -5 5 -16 -5 -26 -21 -10 -16 -49 -48 -87 -70 -38
-22 -88 -56 -110 -75 -60 -49 -102 -73 -142 -81 -80 -14 -134 51 -72 87 16 10
56 24 88 33 32 8 63 20 68 26 8 7 5 8 -9 4 -15 -5 -17 -4 -6 3 8 6 20 8 27 5
7 -2 31 8 53 23 35 23 39 29 29 43 -12 14 -11 14 4 3 15 -12 23 -11 53 8 20
12 33 25 30 28 -3 3 -11 0 -17 -6 -7 -7 -19 -12 -27 -12 -9 0 2 11 24 23 33
19 40 28 40 52 0 66 40 97 307 233 97 50 172 93 165 96 -7 4 1 3 18 0 16 -3
26 -2 22 2 -5 5 -32 12 -60 16 -34 4 -20 5 42 2 52 -2 189 -5 305 -5 158 -1
196 -4 151 -10 -33 -4 -123 -7 -200 -4 l-140 3 105 -9 c58 -5 149 -8 203 -7
53 2 97 0 97 -4 0 -5 -80 -8 -177 -9 -140 -1 -168 -3 -133 -11 25 -5 102 -7
173 -3 70 3 127 2 127 -3 0 -5 -12 -8 -27 -7 -19 2 -21 1 -5 -2 54 -10 14 -18
-80 -15 -57 2 -100 0 -96 -3 4 -4 47 -6 97 -6 55 1 91 -3 91 -9 0 -5 -12 -11
-27 -11 l-28 -1 30 -7 c29 -6 31 -5 48 44 9 27 15 56 12 63 -2 7 -1 11 4 7 5
-3 23 34 39 82 17 49 58 167 92 263 34 96 66 190 72 208 5 19 11 32 14 29 2
-2 -9 -44 -25 -93z m-338 -355 c-13 -4 -23 -10 -23 -13 0 -2 43 -4 96 -4 53 0
98 -3 102 -6 3 -3 -28 -7 -69 -7 -41 -1 -76 -1 -79 -1 -3 -1 -20 2 -38 6 -22
4 -31 2 -26 -5 4 -7 -15 -10 -57 -9 -131 3 -232 0 -225 -7 4 -5 85 -7 179 -6
95 0 160 -1 145 -4 -16 -2 -28 -9 -28 -15 0 -6 28 -9 74 -7 41 2 78 0 82 -4 4
-4 -60 -7 -142 -7 -82 0 -230 -2 -329 -4 -99 -2 -156 -1 -127 1 58 5 70 20 20
26 -18 2 0 5 40 5 39 1 72 6 72 11 0 5 -44 7 -97 5 -64 -2 -88 0 -68 5 17 5
99 9 183 10 83 0 152 5 152 9 0 4 -32 6 -70 4 -39 -2 -83 0 -98 4 -20 7 2 10
83 14 193 9 272 9 248 -1z m-1133 -1248 c5 -11 10 -27 10 -36 0 -10 11 -40 25
-67 14 -28 23 -53 21 -56 -3 -2 -40 9 -83 26 -43 16 -86 32 -95 35 -13 5 -6
17 35 60 58 60 71 66 87 38z m8290 -304 c0 -13 14 -36 31 -53 l30 -29 135 0
c98 0 135 -3 139 -12 2 -7 15 -13 27 -13 13 0 54 -11 93 -25 50 -17 65 -26 52
-31 -18 -6 -96 22 -108 39 -4 5 -38 9 -75 8 -125 -4 -155 -2 -228 15 -107 25
-150 60 -126 104 14 27 30 25 30 -3z"/>
<path d="M4375 8481 c6 -10 2 -12 -13 -7 -46 15 -122 -54 -122 -111 0 -73 75
-143 155 -143 95 0 185 94 169 176 -7 39 -19 51 -28 28 -3 -8 -2 -12 4 -9 12
7 13 -5 1 -23 -6 -10 -12 -7 -25 13 -9 14 -21 23 -25 21 -4 -3 -19 6 -31 19
-13 14 -33 25 -45 25 -11 0 -27 6 -34 13 -11 10 -12 9 -6 -2z"/>
<path d="M7420 8092 c0 -25 -10 -28 -29 -9 -11 10 -12 6 -6 -20 7 -37 -4 -43
-25 -13 -8 11 -19 20 -24 20 -5 0 1 -12 15 -26 l24 -25 -23 -39 c-27 -48 -28
-67 -2 -75 23 -7 27 -25 6 -25 -17 0 -31 -35 -20 -51 4 -7 14 -3 28 14 l21 24
27 -43 c21 -34 23 -44 12 -48 -8 -3 -14 -10 -14 -16 0 -6 5 -8 10 -5 6 3 10 2
10 -4 0 -6 8 -7 17 -4 12 5 15 2 11 -8 -4 -11 2 -15 21 -14 19 0 26 -5 25 -17
-1 -10 4 -18 12 -18 13 0 18 12 15 33 0 4 20 7 47 6 26 0 42 -3 35 -5 -12 -6
-7 -34 7 -34 4 0 10 9 13 21 3 12 10 18 16 14 6 -3 11 -2 11 3 0 14 27 23 46
15 9 -3 13 -12 10 -22 -6 -15 -5 -15 6 0 7 9 20 14 28 11 12 -4 13 -2 3 9 -17
17 -16 56 0 66 8 4 22 20 31 35 18 27 18 28 -8 39 -30 14 -32 25 -9 51 15 17
15 18 -6 18 -21 0 -21 1 -6 16 22 22 14 39 -18 39 -31 -1 -42 18 -22 35 11 9
12 17 4 32 -10 19 -11 19 -42 0 -27 -16 -37 -17 -61 -6 -17 6 -33 20 -37 30
-7 18 -8 18 -8 1 -1 -15 -6 -17 -30 -12 -17 3 -32 2 -36 -4 -11 -19 -28 -12
-22 9 3 13 0 20 -9 20 -10 0 -13 -7 -8 -24 3 -13 1 -27 -5 -30 -6 -4 -11 -1
-11 6 0 7 -7 22 -15 32 -15 19 -15 19 -15 -2z"/>
<path d="M8690 8075 c-36 -23 -139 -85 -230 -138 l-165 -94 -3 -219 c-1 -121
0 -228 2 -239 8 -32 411 -285 454 -285 20 0 56 20 327 180 l130 77 3 246 2
247 -42 30 c-41 30 -295 178 -373 218 l-41 20 -64 -43z m83 -182 c5 -9 -9
-196 -18 -230 -4 -19 -9 -20 -34 -13 -49 14 -221 92 -221 100 0 11 69 72 114
99 66 41 148 63 159 44z m110 -24 c66 -34 112 -75 148 -131 31 -48 34 -59 34
-133 0 -95 -23 -152 -87 -215 -115 -113 -272 -121 -403 -22 -44 33 -95 93 -95
112 0 3 32 16 70 28 88 28 210 86 232 112 11 14 18 49 23 117 8 118 14 153 26
153 5 0 29 -10 52 -21z m-188 -249 l30 -12 -76 -28 c-42 -16 -99 -35 -127 -44
l-52 -15 -1 47 c-2 56 1 114 7 124 4 6 111 -29 219 -72z"/>
<path d="M5265 8011 c-44 -27 -150 -89 -235 -138 l-155 -88 -3 -299 c-3 -332
-4 -326 64 -361 21 -11 119 -66 218 -122 98 -57 190 -103 203 -103 24 0 55 16
346 180 l147 83 0 306 0 306 -73 47 c-140 91 -403 238 -424 238 -4 0 -44 -22
-88 -49z m138 -256 c23 -4 46 -7 50 -6 4 1 17 -4 28 -9 17 -9 25 -6 54 23 41
41 45 37 11 -8 -15 -19 -21 -36 -16 -44 5 -10 9 -10 14 -2 4 6 12 9 17 5 6 -4
5 -11 -2 -20 -10 -12 -8 -24 10 -59 26 -52 41 -101 34 -109 -3 -2 -6 -25 -8
-50 -2 -41 0 -46 19 -47 11 0 30 -5 41 -10 15 -7 9 -8 -21 -4 l-42 5 -60 -93
c-33 -50 -63 -107 -67 -124 -3 -18 -11 -33 -16 -33 -4 0 -6 15 -4 33 l5 32
-10 -32 c-7 -23 -17 -33 -30 -33 -11 0 -20 5 -20 10 0 7 -6 7 -19 1 -25 -14
-91 -8 -102 10 -6 11 -9 8 -9 -10 0 -33 -14 -17 -16 19 -1 16 -28 66 -67 121
-63 92 -87 139 -70 139 5 0 7 26 5 58 -3 42 1 68 13 91 9 18 14 39 11 47 -3 8
-1 14 4 14 14 0 50 37 50 51 0 6 -9 24 -21 40 -11 16 -16 29 -10 29 6 0 15 -9
21 -20 18 -34 44 -41 84 -25 20 8 47 16 61 17 23 2 25 7 27 53 l2 50 3 -51 4
-52 42 -7z"/>
<path d="M6892 7301 c-64 -39 -95 -63 -54 -42 12 7 28 9 34 5 7 -4 8 -3 4 4
-12 20 103 14 159 -8 28 -10 46 -19 40 -20 -5 0 -2 -5 8 -11 9 -5 22 -7 29 -3
7 4 8 3 4 -4 -3 -6 3 -16 14 -22 11 -6 20 -16 20 -23 0 -7 7 -25 16 -42 10
-18 18 -66 22 -118 4 -79 2 -95 -22 -156 -16 -42 -44 -87 -72 -117 -30 -33
-46 -61 -51 -86 -5 -36 -8 -38 -40 -38 -33 0 -35 -2 -29 -27 8 -32 7 -133 0
-145 -7 -10 -73 -9 -99 2 -13 6 -2 7 29 3 37 -5 47 -3 42 6 -5 7 -18 16 -30
21 l-21 9 23 0 c23 1 32 21 10 21 -10 0 -9 3 1 9 9 6 11 20 6 49 -7 40 -7 41
-59 47 -49 6 -53 9 -53 33 0 19 -17 45 -57 87 -32 32 -64 74 -72 93 -24 58
-39 196 -28 252 7 35 7 51 0 54 -7 3 -6 5 1 5 7 1 17 11 24 23 l11 21 -33 -20
c-19 -11 -55 -32 -82 -47 l-47 -27 2 -266 3 -266 170 -99 c94 -54 185 -105
203 -113 39 -17 48 -14 158 48 242 136 300 169 309 178 11 11 18 371 10 465
l-6 60 -127 69 c-70 38 -165 93 -211 122 -47 29 -87 53 -90 53 -4 0 -34 -17
-69 -39z"/>
<path d="M4363 6962 c-13 -2 -23 -8 -23 -13 0 -5 -12 -9 -26 -9 -14 0 -23 -4
-19 -9 3 -5 0 -13 -6 -17 -8 -4 -7 -9 2 -15 27 -17 -15 -9 -60 11 -57 26 -62
25 -21 -5 26 -19 30 -26 18 -30 -13 -5 -15 -23 -14 -91 1 -59 -2 -88 -11 -96
-7 -6 -13 -16 -13 -22 0 -6 5 -3 11 7 5 9 15 17 21 17 6 0 8 -3 5 -6 -4 -4 2
-19 13 -34 24 -34 25 -40 4 -40 -10 0 -14 5 -10 16 3 8 2 12 -3 9 -5 -3 -12
-1 -16 5 -3 5 -1 10 6 10 7 0 10 3 6 6 -3 3 -10 3 -16 0 -6 -4 -4 -17 5 -35
19 -38 40 -55 60 -47 8 3 37 -1 63 -10 27 -8 64 -16 82 -17 19 -2 40 -6 46
-10 9 -6 11 -3 7 8 -5 11 -2 16 7 14 19 -2 79 23 79 34 0 4 4 6 9 3 5 -3 12 2
15 11 6 14 9 14 27 -6 26 -27 37 -20 19 13 -11 21 -10 32 2 70 17 51 9 126
-18 178 -14 26 -13 31 4 53 15 19 22 21 31 12 10 -9 11 -8 6 6 -10 23 -21 21
-47 -8 -24 -28 -38 -32 -38 -11 0 22 -133 65 -144 47 -4 -5 0 -12 6 -14 8 -3
6 -6 -4 -6 -10 -1 -18 3 -18 8 0 12 -20 18 -47 13z m141 -106 c21 -13 46 -74
46 -110 0 -49 -69 -116 -121 -116 -12 0 -42 9 -65 20 -71 35 -89 118 -40 193
30 45 121 52 180 13z"/>
<path d="M4395 6825 c-17 -6 -37 -24 -45 -39 -41 -77 89 -133 137 -60 16 25
16 28 -3 62 -23 43 -50 54 -89 37z"/>
<path d="M8255 6278 c0 -24 -4 -59 -8 -80 -8 -36 -7 -36 44 -61 62 -29 111
-23 147 18 12 14 22 22 22 17 0 -5 -9 -17 -20 -27 -22 -19 -28 -85 -9 -85 7 0
9 10 5 25 -4 17 0 34 13 53 20 29 33 92 22 110 -6 10 -185 72 -207 72 -5 0 -9
-19 -9 -42z"/>
<path d="M7480 6078 c-41 -11 -88 -24 -105 -28 -16 -4 -24 -8 -17 -9 6 -1 12
-8 12 -17 0 -13 -6 -15 -27 -10 -17 4 -23 3 -15 -2 9 -6 6 -14 -12 -31 -18
-17 -25 -19 -29 -9 -2 7 -5 2 -5 -12 0 -14 -3 -37 -7 -52 -6 -23 -2 -30 26
-47 19 -12 37 -21 40 -21 4 0 9 18 12 40 10 78 62 120 145 120 46 0 80 -31
112 -102 24 -56 42 -61 61 -17 11 28 10 36 -9 73 -12 22 -35 50 -52 61 -16 11
-27 21 -25 24 3 2 15 -4 26 -15 22 -19 22 -19 8 4 -8 12 -19 22 -26 22 -6 0
-14 6 -16 13 -4 9 -8 8 -17 -3 -9 -12 -10 -10 -6 13 4 15 5 27 4 26 -2 0 -37
-9 -78 -21z"/>
<path d="M5317 6059 c-100 -23 -223 -118 -266 -204 -12 -25 -28 -45 -36 -45
-9 0 -15 -22 -20 -72 -20 -218 84 -394 272 -459 226 -78 479 74 524 314 49
269 -213 527 -474 466z m156 -143 c68 -20 121 -67 156 -138 86 -172 -13 -354
-211 -383 -100 -15 -218 47 -267 140 -21 41 -26 63 -26 125 0 64 4 83 30 128
64 118 188 167 318 128z"/>
<path d="M5339 5831 c-77 -25 -119 -86 -119 -174 0 -169 211 -229 317 -90 38
50 39 133 3 186 -42 62 -137 98 -201 78z"/>
<path d="M8714 5833 l-52 -4 -11 -77 c-6 -42 -23 -139 -38 -214 -15 -76 -24
-141 -20 -144 7 -7 93 14 170 41 20 7 37 10 37 6 0 -4 -18 -14 -40 -21 -22 -7
-39 -15 -37 -17 8 -7 177 38 230 62 l55 24 -14 41 c-19 55 -130 259 -157 288
-12 13 -31 21 -46 20 -14 -1 -49 -3 -77 -5z m106 -177 c-12 -20 -26 -36 -31
-36 -5 0 -9 -4 -9 -8 0 -10 73 -45 150 -71 l55 -19 -52 5 c-36 4 -53 2 -53 -5
0 -7 -19 -21 -42 -33 -39 -20 -41 -20 -27 -3 9 11 19 26 22 35 8 23 -38 32
-55 11 -11 -13 -11 -14 2 -7 13 8 13 7 1 -8 -15 -18 -26 -23 -16 -7 3 6 2 10
-4 10 -5 0 -11 -3 -13 -8 -1 -4 -15 -17 -31 -29 -23 -18 -32 -20 -57 -10 -17
6 -30 17 -30 23 0 7 23 32 52 56 28 24 74 66 102 94 28 28 53 49 55 48 2 -2
-7 -19 -19 -38z"/>
<path d="M7690 4943 c-8 -3 -47 -21 -85 -39 -39 -18 -115 -49 -169 -69 -145
-52 -137 -45 -135 -121 1 -35 5 -64 8 -64 3 0 18 10 32 23 19 16 30 39 37 77
l11 55 -2 -52 -2 -52 25 16 c14 9 47 32 73 52 27 20 52 36 57 36 4 0 12 3 16
7 4 4 24 5 44 2 40 -7 109 18 155 54 l25 20 -21 26 c-20 26 -22 26 -40 10 -11
-10 -22 -14 -26 -11 -3 4 -2 7 4 7 6 0 13 7 17 15 6 16 1 17 -24 8z"/>
<path d="M7575 4768 c-11 -6 -28 -18 -37 -27 -23 -22 -40 -35 -58 -46 -13 -8
-13 -7 0 10 17 21 21 23 -115 -60 l-60 -36 47 5 c51 5 110 23 228 68 86 32 96
34 104 13 3 -8 10 -15 16 -15 6 0 4 10 -5 24 -14 20 -20 22 -55 16 -22 -4 -47
-13 -55 -20 -9 -7 -18 -10 -21 -7 -3 3 13 15 35 28 23 12 41 26 41 31 0 9 -18
2 -78 -30 -59 -31 -65 -21 -7 12 25 15 45 31 45 36 0 12 0 12 -25 -2z"/>
<path d="M6290 4125 c0 -14 5 -25 11 -25 6 0 8 7 5 16 -4 11 3 9 27 -7 17 -12
34 -24 37 -27 3 -2 -14 -1 -37 3 -27 4 -43 3 -43 -3 0 -6 6 -13 13 -15 10 -4
10 -6 0 -6 -8 -1 -13 -15 -13 -35 0 -33 2 -35 38 -39 l37 -4 -37 -1 c-36 -2
-37 -3 -36 -37 1 -33 2 -34 47 -38 l46 -3 -47 -2 c-27 -1 -48 -6 -48 -11 0 -6
21 -12 48 -14 l47 -3 -47 -2 c-27 -1 -48 -6 -48 -11 0 -6 21 -12 48 -14 l47
-3 -47 -2 c-47 -2 -65 -16 -30 -25 16 -4 16 -5 0 -6 -25 -1 -23 -21 2 -21 13
0 20 7 20 19 0 15 5 17 28 12 25 -5 25 -6 5 -9 -31 -5 -29 -22 2 -22 26 0 26
0 24 85 l-2 85 -38 -2 c-22 -1 -42 2 -46 5 -3 4 14 7 38 7 41 0 45 2 45 25 0
21 -5 25 -30 26 -29 2 -29 2 -5 6 16 2 29 12 32 24 4 13 11 17 24 13 26 -8
-26 35 -77 64 l-40 23 0 -26z"/>
<path d="M6773 4078 c-2 -19 0 -20 8 -8 8 11 9 3 5 -27 -4 -26 -2 -43 4 -43 6
0 9 -233 7 -682 -2 -643 -2 -683 15 -700 23 -23 31 -23 39 -1 5 12 8 6 8 -20
1 -23 5 -36 11 -32 7 4 10 260 10 751 -1 650 -3 746 -16 751 -8 3 -18 2 -22
-2 -4 -3 -10 -115 -13 -248 l-6 -242 1 253 c1 203 -2 251 -12 247 -7 -3 -11
-1 -8 4 5 7 -14 21 -28 21 -1 0 -3 -10 -3 -22z"/>
<path d="M6755 3870 c2 -80 5 -392 6 -695 l3 -550 7 470 c7 490 2 879 -12 905
-4 8 -6 -50 -4 -130z"/>
<path d="M2903 3870 c-59 -82 -74 -108 -55 -97 4 3 61 8 126 11 125 7 136 10
136 29 0 22 -117 130 -131 122 -7 -5 -10 -4 -5 3 3 6 3 13 -1 15 -5 3 -36 -35
-70 -83z"/>
<path d="M6340 3766 c0 -9 8 -13 23 -10 20 4 20 3 -3 -7 l-25 -12 25 -7 c20
-7 15 -9 -25 -11 l-50 -2 50 -7 c44 -6 30 -15 -17 -11 -9 1 -19 -3 -23 -9 -4
-6 11 -10 42 -11 26 -1 38 -4 26 -6 -20 -4 -23 -11 -23 -49 0 -24 3 -43 8 -43
20 3 32 -2 27 -12 -4 -6 -13 -8 -21 -5 -8 3 -14 -1 -14 -8 0 -9 7 -12 20 -9
11 3 20 0 20 -6 0 -6 -3 -10 -7 -10 -24 4 -33 -4 -32 -28 2 -24 2 -25 6 -5 3
13 11 22 21 21 11 0 12 -3 5 -6 -7 -2 -13 -21 -14 -41 0 -30 -2 -33 -9 -17 -8
19 -9 19 -9 -2 -1 -13 5 -23 12 -23 9 0 9 -2 1 -8 -9 -5 -8 -10 1 -19 11 -10
15 -10 18 0 3 7 6 4 6 -5 1 -12 -7 -18 -21 -19 -22 -1 -22 -1 2 -9 l25 -8 -25
-2 c-14 -1 -19 -4 -12 -7 6 -2 12 -11 12 -19 0 -9 5 -12 10 -9 6 3 10 1 10 -4
0 -6 -10 -11 -22 -11 -18 0 -20 -2 -9 -9 12 -8 12 -12 2 -25 -11 -13 -11 -16
0 -16 11 0 11 -2 -1 -10 -10 -6 -11 -10 -2 -10 9 0 12 -26 12 -95 0 -63 4 -95
11 -95 7 0 9 -15 6 -42 -3 -24 -2 -74 2 -113 5 -43 9 112 10 408 l1 477 -25 0
c-15 0 -25 -6 -25 -14z"/>
<path d="M3434 7481 c-17 -11 -36 -34 -43 -52 -21 -61 -18 -65 61 -78 40 -7
92 -23 115 -37 23 -13 44 -24 47 -24 12 0 5 102 -8 135 -28 67 -111 93 -172
56z"/>
<path d="M9352 3690 c2 -78 -27 -185 -43 -159 -4 8 -13 1 -23 -20 -9 -17 -21
-29 -25 -26 -5 2 -12 -7 -16 -22 -5 -21 -8 -24 -16 -12 -6 10 -9 11 -9 1 0 -7
-7 -12 -16 -10 -12 2 -17 -7 -20 -41 -5 -51 -11 -64 -26 -55 -8 5 -9 1 -4 -11
5 -15 4 -16 -8 -6 -19 16 -28 71 -27 173 1 80 -1 88 -18 88 -11 0 -22 6 -25
13 -3 6 -4 0 -2 -16 3 -23 1 -25 -11 -15 -8 7 -24 13 -35 15 -17 3 -19 -1 -14
-22 5 -19 2 -25 -10 -25 -10 0 -14 -5 -10 -16 3 -8 2 -12 -3 -9 -31 19 -29
-97 3 -200 33 -105 49 -174 47 -205 0 -17 2 -21 8 -12 6 10 8 5 9 -15 1 -49
20 -144 32 -158 6 -7 12 -28 12 -45 1 -20 4 -27 9 -18 15 27 148 426 165 493
9 39 38 120 64 180 65 151 76 236 29 232 -17 -1 -19 -9 -17 -77z"/>
<path d="M0 1004 c0 -59 15 -83 53 -84 11 0 17 -8 17 -22 0 -27 16 -55 25 -46
7 6 13 31 14 58 1 12 3 12 10 2 6 -10 11 -5 20 19 6 17 11 36 11 40 0 23 -101
88 -137 89 -9 0 -13 -18 -13 -56z"/>
<path d="M370 950 c0 -17 5 -30 13 -30 8 0 7 -4 -3 -10 -16 -10 -8 -14 23 -11
9 1 17 -2 17 -8 0 -6 7 -7 17 -4 12 5 14 3 8 -7 -6 -10 -4 -12 9 -7 17 7 205
-29 314 -60 62 -17 64 -17 78 2 8 10 14 22 14 25 0 9 -107 42 -285 89 -222 58
-205 57 -205 21z"/>
<path d="M3130 961 c-102 -4 -278 -6 -393 -6 -114 0 -207 -2 -207 -5 0 -3 10
-6 23 -7 57 -4 513 -1 702 4 285 7 342 7 475 -2 120 -8 148 -1 45 10 -84 10
-425 13 -645 6z"/>
<path d="M2490 774 c-181 -32 -325 -106 -364 -188 -23 -49 -20 -114 6 -156
l22 -35 6 40 5 40 7 -44 c4 -24 13 -51 22 -59 13 -14 16 -12 22 14 16 64 119
179 150 167 11 -4 5 -15 -20 -43 -47 -53 -66 -83 -72 -116 -3 -16 -7 -37 -10
-46 -3 -11 0 -15 13 -13 10 1 17 7 16 13 -2 6 4 23 12 38 8 15 12 31 9 36 -11
17 53 68 110 88 32 11 86 22 120 26 78 7 361 -10 378 -23 7 -6 26 -13 42 -17
26 -6 28 -5 17 8 -7 8 -21 18 -30 21 -35 11 -48 85 -15 85 54 0 138 -69 150
-123 l6 -30 19 24 c24 31 24 46 -1 94 -23 46 -24 48 -7 39 7 -4 9 -3 4 2 -5 5
-12 9 -15 9 -4 1 -22 15 -40 32 -40 39 -114 75 -202 98 -63 16 -302 29 -360
19z"/>
<path d="M3730 520 c0 -24 26 -68 55 -92 24 -19 125 -41 149 -32 14 5 15 9 4
15 -9 6 -4 9 15 9 24 0 27 4 27 35 0 36 -28 75 -54 75 -7 0 -32 -7 -56 -15
-42 -15 -80 -8 -80 15 0 6 -13 10 -30 10 -24 0 -30 -4 -30 -20z"/>
</g>
</svg>
